  0
SECTION
  2
HEADER
  9
$ACADVER
  1
AC1015
  9
$ACADMAINTVER
 70
     6
  9
$DWGCODEPAGE
  3
ANSI_1252
  9
$INSBASE
 10
0.0
 20
0.0
 30
0.0
  9
$EXTMIN
 10
1.000000000000000E+20
 20
1.000000000000000E+20
 30
1.000000000000000E+20
  9
$EXTMAX
 10
-1.000000000000000E+20
 20
-1.000000000000000E+20
 30
-1.000000000000000E+20
  9
$LIMMIN
 10
0.0
 20
0.0
  9
$LIMMAX
 10
12.0
 20
9.0
  9
$ORTHOMODE
 70
     0
  9
$REGENMODE
 70
     1
  9
$FILLMODE
 70
     1
  9
$QTEXTMODE
 70
     0
  9
$MIRRTEXT
 70
     1
  9
$LTSCALE
 40
1.0
  9
$ATTMODE
 70
     1
  9
$TEXTSIZE
 40
0.2
  9
$TRACEWID
 40
0.05
  9
$TEXTSTYLE
  7
Standard
  9
$CLAYER
  8
0
  9
$CELTYPE
  6
ByLayer
  9
$CECOLOR
 62
   256
  9
$CELTSCALE
 40
1.0
  9
$DISPSILH
 70
     0
  9
$DIMSCALE
 40
1.0
  9
$DIMASZ
 40
0.18
  9
$DIMEXO
 40
0.0625
  9
$DIMDLI
 40
0.38
  9
$DIMRND
 40
0.0
  9
$DIMDLE
 40
0.0
  9
$DIMEXE
 40
0.18
  9
$DIMTP
 40
0.0
  9
$DIMTM
 40
0.0
  9
$DIMTXT
 40
0.18
  9
$DIMCEN
 40
0.09
  9
$DIMTSZ
 40
0.0
  9
$DIMTOL
 70
     0
  9
$DIMLIM
 70
     0
  9
$DIMTIH
 70
     1
  9
$DIMTOH
 70
     1
  9
$DIMSE1
 70
     0
  9
$DIMSE2
 70
     0
  9
$DIMTAD
 70
     0
  9
$DIMZIN
 70
     0
  9
$DIMBLK
  1

  9
$DIMASO
 70
     1
  9
$DIMSHO
 70
     1
  9
$DIMPOST
  1

  9
$DIMAPOST
  1

  9
$DIMALT
 70
     0
  9
$DIMALTD
 70
     2
  9
$DIMALTF
 40
25.4
  9
$DIMLFAC
 40
1.0
  9
$DIMTOFL
 70
     0
  9
$DIMTVP
 40
0.0
  9
$DIMTIX
 70
     0
  9
$DIMSOXD
 70
     0
  9
$DIMSAH
 70
     0
  9
$DIMBLK1
  1

  9
$DIMBLK2
  1

  9
$DIMSTYLE
  2
Standard
  9
$DIMCLRD
 70
     0
  9
$DIMCLRE
 70
     0
  9
$DIMCLRT
 70
     0
  9
$DIMTFAC
 40
1.0
  9
$DIMGAP
 40
0.09
  9
$DIMJUST
 70
     0
  9
$DIMSD1
 70
     0
  9
$DIMSD2
 70
     0
  9
$DIMTOLJ
 70
     1
  9
$DIMTZIN
 70
     0
  9
$DIMALTZ
 70
     0
  9
$DIMALTTZ
 70
     0
  9
$DIMUPT
 70
     0
  9
$DIMDEC
 70
     4
  9
$DIMTDEC
 70
     4
  9
$DIMALTU
 70
     2
  9
$DIMALTTD
 70
     2
  9
$DIMTXSTY
  7
Standard
  9
$DIMAUNIT
 70
     0
  9
$DIMADEC
 70
     0
  9
$DIMALTRND
 40
0.0
  9
$DIMAZIN
 70
     0
  9
$DIMDSEP
 70
    46
  9
$DIMATFIT
 70
     3
  9
$DIMFRAC
 70
     0
  9
$DIMLDRBLK
  1

  9
$DIMLUNIT
 70
     2
  9
$DIMLWD
 70
    -2
  9
$DIMLWE
 70
    -2
  9
$DIMTMOVE
 70
     0
  9
$LUNITS
 70
     2
  9
$LUPREC
 70
     4
  9
$SKETCHINC
 40
0.1
  9
$FILLETRAD
 40
0.5
  9
$AUNITS
 70
     0
  9
$AUPREC
 70
     0
  9
$MENU
  1
.
  9
$ELEVATION
 40
0.0
  9
$PELEVATION
 40
0.0
  9
$THICKNESS
 40
0.0
  9
$LIMCHECK
 70
     0
  9
$CHAMFERA
 40
0.5
  9
$CHAMFERB
 40
0.5
  9
$CHAMFERC
 40
1.0
  9
$CHAMFERD
 40
0.0
  9
$SKPOLY
 70
     0
  9
$TDCREATE
 40
2458641.613803275
  9
$TDUCREATE
 40
2458641.530469942
  9
$TDUPDATE
 40
2458641.613803345
  9
$TDUUPDATE
 40
2458641.530470012
  9
$TDINDWG
 40
0.0000000116
  9
$TDUSRTIMER
 40
0.0000000116
  9
$USRTIMER
 70
     1
  9
$ANGBASE
 50
0.0
  9
$ANGDIR
 70
     0
  9
$PDMODE
 70
     0
  9
$PDSIZE
 40
0.0
  9
$PLINEWID
 40
0.0
  9
$SPLFRAME
 70
     0
  9
$SPLINETYPE
 70
     6
  9
$SPLINESEGS
 70
     8
  9
$HANDSEED
  5
219
  9
$SURFTAB1
 70
     6
  9
$SURFTAB2
 70
     6
  9
$SURFTYPE
 70
     6
  9
$SURFU
 70
     6
  9
$SURFV
 70
     6
  9
$UCSBASE
  2

  9
$UCSNAME
  2

  9
$UCSORG
 10
0.0
 20
0.0
 30
0.0
  9
$UCSXDIR
 10
1.0
 20
0.0
 30
0.0
  9
$UCSYDIR
 10
0.0
 20
1.0
 30
0.0
  9
$UCSORTHOREF
  2

  9
$UCSORTHOVIEW
 70
     0
  9
$UCSORGTOP
 10
0.0
 20
0.0
 30
0.0
  9
$UCSORGBOTTOM
 10
0.0
 20
0.0
 30
0.0
  9
$UCSORGLEFT
 10
0.0
 20
0.0
 30
0.0
  9
$UCSORGRIGHT
 10
0.0
 20
0.0
 30
0.0
  9
$UCSORGFRONT
 10
0.0
 20
0.0
 30
0.0
  9
$UCSORGBACK
 10
0.0
 20
0.0
 30
0.0
  9
$PUCSBASE
  2

  9
$PUCSNAME
  2

  9
$PUCSORG
 10
0.0
 20
0.0
 30
0.0
  9
$PUCSXDIR
 10
1.0
 20
0.0
 30
0.0
  9
$PUCSYDIR
 10
0.0
 20
1.0
 30
0.0
  9
$PUCSORTHOREF
  2

  9
$PUCSORTHOVIEW
 70
     0
  9
$PUCSORGTOP
 10
0.0
 20
0.0
 30
0.0
  9
$PUCSORGBOTTOM
 10
0.0
 20
0.0
 30
0.0
  9
$PUCSORGLEFT
 10
0.0
 20
0.0
 30
0.0
  9
$PUCSORGRIGHT
 10
0.0
 20
0.0
 30
0.0
  9
$PUCSORGFRONT
 10
0.0
 20
0.0
 30
0.0
  9
$PUCSORGBACK
 10
0.0
 20
0.0
 30
0.0
  9
$USERI1
 70
     0
  9
$USERI2
 70
     0
  9
$USERI3
 70
     0
  9
$USERI4
 70
     0
  9
$USERI5
 70
     0
  9
$USERR1
 40
0.0
  9
$USERR2
 40
0.0
  9
$USERR3
 40
0.0
  9
$USERR4
 40
0.0
  9
$USERR5
 40
0.0
  9
$WORLDVIEW
 70
     1
  9
$SHADEDGE
 70
     3
  9
$SHADEDIF
 70
    70
  9
$TILEMODE
 70
     1
  9
$MAXACTVP
 70
    64
  9
$PINSBASE
 10
0.0
 20
0.0
 30
0.0
  9
$PLIMCHECK
 70
     0
  9
$PEXTMIN
 10
1.000000000000000E+20
 20
1.000000000000000E+20
 30
1.000000000000000E+20
  9
$PEXTMAX
 10
-1.000000000000000E+20
 20
-1.000000000000000E+20
 30
-1.000000000000000E+20
  9
$PLIMMIN
 10
0.0
 20
0.0
  9
$PLIMMAX
 10
12.0
 20
9.0
  9
$UNITMODE
 70
     0
  9
$VISRETAIN
 70
     1
  9
$PLINEGEN
 70
     0
  9
$PSLTSCALE
 70
     1
  9
$TREEDEPTH
 70
  3020
  9
$CMLSTYLE
  2
Standard
  9
$CMLJUST
 70
     0
  9
$CMLSCALE
 40
1.0
  9
$PROXYGRAPHICS
 70
     1
  9
$MEASUREMENT
 70
     0
  9
$CELWEIGHT
370
    -1
  9
$ENDCAPS
280
     0
  9
$JOINSTYLE
280
     0
  9
$LWDISPLAY
290
     1
  9
$INSUNITS
 70
     1
  9
$HYPERLINKBASE
  1

  9
$STYLESHEET
  1

  9
$XEDIT
290
     1
  9
$CEPSNTYPE
380
     0
  9
$PSTYLEMODE
290
     1
  9
$FINGERPRINTGUID
  2
{D048693A-DEBD-46F8-B58B-C5AE662432E8}
  9
$VERSIONGUID
  2
{FAEB1C32-E019-11D5-929B-00C0DF256EC4}
  9
$EXTNAMES
290
     1
  9
$PSVPSCALE
 40
0.0
  9
$OLESTARTUP
290
     0
  0
ENDSEC
  0
SECTION
  2
CLASSES
  0
CLASS
  1
ACDBDICTIONARYWDFLT
  2
AcDbDictionaryWithDefault
  3
ObjectDBX Classes
 90
        0
280
     0
281
     0
  0
CLASS
  1
VISUALSTYLE
  2
AcDbVisualStyle
  3
ObjectDBX Classes
 90
     4095
280
     0
281
     0
  0
CLASS
  1
MATERIAL
  2
AcDbMaterial
  3
ObjectDBX Classes
 90
     1153
280
     0
281
     0
  0
CLASS
  1
SUN
  2
AcDbSun
  3
SCENEOE
 90
     1024
280
     0
281
     0
  0
CLASS
  1
DICTIONARYVAR
  2
AcDbDictionaryVar
  3
ObjectDBX Classes
 90
        0
280
     0
281
     0
  0
CLASS
  1
ACDBPLACEHOLDER
  2
AcDbPlaceHolder
  3
ObjectDBX Classes
 90
        0
280
     0
281
     0
  0
CLASS
  1
LAYOUT
  2
AcDbLayout
  3
ObjectDBX Classes
 90
        0
280
     0
281
     0
  0
ENDSEC
  0
SECTION
  2
TABLES
  0
TABLE
  2
VPORT
  5
8
330
0
100
AcDbSymbolTable
 70
     1
  0
VPORT
  5
29
330
8
100
AcDbSymbolTableRecord
100
AcDbViewportTableRecord
  2
*Active
 70
     0
 10
0.0
 20
0.0
 11
1.0
 21
1.0
 12
0.0
 22
0.0
 13
0.0
 23
0.0
 14
0.5
 24
0.5
 15
0.5
 25
0.5
 16
0.0
 26
0.0
 36
1.0
 17
104.9999999737534
 27
-148.4999999628701
 37
0.0
 40
296.9999999257402
 41
0.7070707070707533
 42
50.0
 43
0.0
 44
0.0
 50
0.0
 51
0.0
 71
     0
 72
   100
 73
     1
 74
     3
 75
     0
 76
     0
 77
     0
 78
     0
281
     0
 65
     1
110
0.0
120
0.0
130
0.0
111
1.0
121
0.0
131
0.0
112
0.0
122
1.0
132
0.0
 79
     0
146
0.0
  0
ENDTAB
  0
TABLE
  2
LTYPE
  5
5
330
0
100
AcDbSymbolTable
 70
     1
  0
LTYPE
  5
14
330
5
100
AcDbSymbolTableRecord
100
AcDbLinetypeTableRecord
  2
ByBlock
 70
     0
  3

 72
    65
 73
     0
 40
0.0
  0
LTYPE
  5
15
330
5
100
AcDbSymbolTableRecord
100
AcDbLinetypeTableRecord
  2
ByLayer
 70
     0
  3

 72
    65
 73
     0
 40
0.0
  0
LTYPE
  5
16
330
5
100
AcDbSymbolTableRecord
100
AcDbLinetypeTableRecord
  2
Continuous
 70
     0
  3
Solid line
 72
    65
 73
     0
 40
0.0
  0
ENDTAB
  0
TABLE
  2
LAYER
  5
2
330
0
100
AcDbSymbolTable
 70
     2
  0
LAYER
  5
10
330
2
100
AcDbSymbolTableRecord
100
AcDbLayerTableRecord
  2
0
 70
     0
 62
     7
  6
Continuous
370
    -3
390
F
  0
LAYER
  5
40
330
2
100
AcDbSymbolTableRecord
100
AcDbLayerTableRecord
  2
Capa 1
 70
     0
 62
     7
  6
Continuous
370
    -3
390
F
  0
ENDTAB
  0
TABLE
  2
STYLE
  5
3
330
0
100
AcDbSymbolTable
 70
     1
  0
STYLE
  5
11
330
3
100
AcDbSymbolTableRecord
100
AcDbTextStyleTableRecord
  2
Standard
 70
     0
 40
0.0
 41
1.0
 50
0.0
 71
     0
 42
0.2
  3
txt
  4

  0
ENDTAB
  0
TABLE
  2
VIEW
  5
6
330
0
100
AcDbSymbolTable
 70
     0
  0
ENDTAB
  0
TABLE
  2
UCS
  5
7
330
0
100
AcDbSymbolTable
 70
     0
  0
ENDTAB
  0
TABLE
  2
APPID
  5
9
330
0
100
AcDbSymbolTable
 70
     1
  0
APPID
  5
12
330
9
100
AcDbSymbolTableRecord
100
AcDbRegAppTableRecord
  2
ACAD
 70
     0
  0
ENDTAB
  0
TABLE
  2
DIMSTYLE
  5
A
330
0
100
AcDbSymbolTable
 70
     1
100
AcDbDimStyleTable
  0
DIMSTYLE
105
27
330
A
100
AcDbSymbolTableRecord
100
AcDbDimStyleTableRecord
  2
Standard
 70
     0
178
     0
340
11
  0
ENDTAB
  0
TABLE
  2
BLOCK_RECORD
  5
1
330
0
100
AcDbSymbolTable
 70
     1
  0
BLOCK_RECORD
  5
1F
330
1
100
AcDbSymbolTableRecord
100
AcDbBlockTableRecord
  2
*Model_Space
340
22
  0
BLOCK_RECORD
  5
1B
330
1
100
AcDbSymbolTableRecord
100
AcDbBlockTableRecord
  2
*Paper_Space
340
1E
  0
BLOCK_RECORD
  5
23
330
1
100
AcDbSymbolTableRecord
100
AcDbBlockTableRecord
  2
*Paper_Space0
340
26
  0
ENDTAB
  0
ENDSEC
  0
SECTION
  2
BLOCKS
  0
BLOCK
  5
20
330
1F
100
AcDbEntity
  8
0
100
AcDbBlockBegin
  2
*Model_Space
 70
     0
 10
0.0
 20
0.0
 30
0.0
  3
*Model_Space
  1

  0
ENDBLK
  5
21
330
1F
100
AcDbEntity
  8
0
100
AcDbBlockEnd
  0
BLOCK
  5
1C
330
1B
100
AcDbEntity
 67
     1
  8
0
100
AcDbBlockBegin
  2
*Paper_Space
 70
     0
 10
0.0
 20
0.0
 30
0.0
  3
*Paper_Space
  1

  0
ENDBLK
  5
1D
330
1B
100
AcDbEntity
 67
     1
  8
0
100
AcDbBlockEnd
  0
BLOCK
  5
24
330
23
100
AcDbEntity
  8
0
100
AcDbBlockBegin
  2
*Paper_Space0
 70
     0
 10
0.0
 20
0.0
 30
0.0
  3
*Paper_Space0
  1

  0
ENDBLK
  5
25
330
23
100
AcDbEntity
  8
0
100
AcDbBlockEnd
  0
ENDSEC
  0
SECTION
  2
ENTITIES
  0
SPLINE
  5
41
330
1F
100
AcDbEntity
  8
Capa 1
 62
    29
370
    20
100
AcDbSpline
210
0.0
220
0.0
230
1.0
 70
    11
 71
     3
 72
    17
 73
    13
 74
     0
 42
0.0000000001
 43
0.0000000001
 12
1.0
 22
0.0
 32
0.0
 13
1.0
 23
0.0
 33
0.0
 40
0.0
 40
0.0
 40
0.0
 40
0.0
 40
1.0
 40
1.0
 40
1.0
 40
2.0
 40
2.0
 40
2.0
 40
3.0
 40
3.0
 40
3.0
 40
4.0
 40
4.0
 40
4.0
 40
4.0
 10
33.28038823600345
 20
-177.464935282646
 30
0.0
 10
33.28038823600345
 20
-178.0448342697912
 30
0.0
 10
32.81028722341094
 20
-178.5149352823837
 30
0.0
 10
32.23038823626602
 20
-178.5149352823837
 30
0.0
 10
31.65048924912111
 20
-178.5149352823837
 30
0.0
 10
31.1803882365286
 20
-178.0448342697912
 30
0.0
 10
31.1803882365286
 20
-177.464935282646
 30
0.0
 10
31.1803882365286
 20
-176.8850362955008
 30
0.0
 10
31.65048924912111
 20
-176.4149352829082
 30
0.0
 10
32.23038823626602
 20
-176.4149352829082
 30
0.0
 10
32.81028722341094
 20
-176.4149352829082
 30
0.0
 10
33.28038823600345
 20
-176.8850362955008
 30
0.0
 10
33.28038823600345
 20
-177.464935282646
 30
0.0
  0
SPLINE
  5
42
330
1F
100
AcDbEntity
  8
Capa 1
 62
    29
370
    20
100
AcDbSpline
210
0.0
220
0.0
230
1.0
 70
    11
 71
     3
 72
    17
 73
    13
 74
     0
 42
0.0000000001
 43
0.0000000001
 12
1.0
 22
0.0
 32
0.0
 13
1.0
 23
0.0
 33
0.0
 40
0.0
 40
0.0
 40
0.0
 40
0.0
 40
1.0
 40
1.0
 40
1.0
 40
2.0
 40
2.0
 40
2.0
 40
3.0
 40
3.0
 40
3.0
 40
4.0
 40
4.0
 40
4.0
 40
4.0
 10
99.05139516400514
 20
-196.331419652929
 30
0.0
 10
99.05139516400514
 20
-196.9113186400742
 30
0.0
 10
98.58129415141264
 20
-197.3814196526667
 30
0.0
 10
98.00139516426772
 20
-197.3814196526667
 30
0.0
 10
97.4214961771228
 20
-197.3814196526667
 30
0.0
 10
96.9513951645303
 20
-196.9113186400742
 30
0.0
 10
96.9513951645303
 20
-196.331419652929
 30
0.0
 10
96.9513951645303
 20
-195.7515206657837
 30
0.0
 10
97.4214961771228
 20
-195.2814196531912
 30
0.0
 10
98.00139516426772
 20
-195.2814196531912
 30
0.0
 10
98.58129415141264
 20
-195.2814196531912
 30
0.0
 10
99.05139516400514
 20
-195.7515206657837
 30
0.0
 10
99.05139516400514
 20
-196.331419652929
 30
0.0
  0
SPLINE
  5
43
330
1F
100
AcDbEntity
  8
Capa 1
 62
    29
370
    20
100
AcDbSpline
210
0.0
220
0.0
230
1.0
 70
    11
 71
     3
 72
    17
 73
    13
 74
     0
 42
0.0000000001
 43
0.0000000001
 12
1.0
 22
0.0
 32
0.0
 13
1.0
 23
0.0
 33
0.0
 40
0.0
 40
0.0
 40
0.0
 40
0.0
 40
1.0
 40
1.0
 40
1.0
 40
2.0
 40
2.0
 40
2.0
 40
3.0
 40
3.0
 40
3.0
 40
4.0
 40
4.0
 40
4.0
 40
4.0
 10
155.0769159833324
 20
-211.0890672186844
 30
0.0
 10
155.0769159833324
 20
-211.6689662058296
 30
0.0
 10
154.6068149707399
 20
-212.1390672184221
 30
0.0
 10
154.0269141182192
 20
-212.1390672184221
 30
0.0
 10
153.4470169964494
 20
-212.1390672184221
 30
0.0
 10
152.9769159838569
 20
-211.6689662058296
 30
0.0
 10
152.9769159838569
 20
-211.0890672186844
 30
0.0
 10
152.9769159838569
 20
-210.5091682315391
 30
0.0
 10
153.4470169964494
 20
-210.0390672189467
 30
0.0
 10
154.0269141182192
 20
-210.0390672189467
 30
0.0
 10
154.6068149707399
 20
-210.0390672189467
 30
0.0
 10
155.0769159833324
 20
-210.5091682315391
 30
0.0
 10
155.0769159833324
 20
-211.0890672186844
 30
0.0
  0
SPLINE
  5
44
330
1F
100
AcDbEntity
  8
Capa 1
 62
    29
370
    20
100
AcDbSpline
210
0.0
220
0.0
230
1.0
 70
    11
 71
     3
 72
    17
 73
    13
 74
     0
 42
0.0000000001
 43
0.0000000001
 12
1.0
 22
0.0
 32
0.0
 13
1.0
 23
0.0
 33
0.0
 40
0.0
 40
0.0
 40
0.0
 40
0.0
 40
1.0
 40
1.0
 40
1.0
 40
2.0
 40
2.0
 40
2.0
 40
3.0
 40
3.0
 40
3.0
 40
4.0
 40
4.0
 40
4.0
 40
4.0
 10
178.6174831351132
 20
-170.1962431478244
 30
0.0
 10
178.6174831351132
 20
-170.7761421349697
 30
0.0
 10
178.1473821225207
 20
-171.2462431475622
 30
0.0
 10
177.5674831353754
 20
-171.2462431475622
 30
0.0
 10
176.9875841482302
 20
-171.2462431475622
 30
0.0
 10
176.5174831356377
 20
-170.7761421349697
 30
0.0
 10
176.5174831356377
 20
-170.1962431478244
 30
0.0
 10
176.5174831356377
 20
-169.6163441606792
 30
0.0
 10
176.9875841482302
 20
-169.1462431480867
 30
0.0
 10
177.5674831353754
 20
-169.1462431480867
 30
0.0
 10
178.1473821225207
 20
-169.1462431480867
 30
0.0
 10
178.6174831351132
 20
-169.6163441606792
 30
0.0
 10
178.6174831351132
 20
-170.1962431478244
 30
0.0
  0
SPLINE
  5
45
330
1F
100
AcDbEntity
  8
Capa 1
 62
    29
370
    20
100
AcDbSpline
210
0.0
220
0.0
230
1.0
 70
    11
 71
     3
 72
    17
 73
    13
 74
     0
 42
0.0000000001
 43
0.0000000001
 12
1.0
 22
0.0
 32
0.0
 13
1.0
 23
0.0
 33
0.0
 40
0.0
 40
0.0
 40
0.0
 40
0.0
 40
1.0
 40
1.0
 40
1.0
 40
2.0
 40
2.0
 40
2.0
 40
3.0
 40
3.0
 40
3.0
 40
4.0
 40
4.0
 40
4.0
 40
4.0
 10
152.2326451507101
 20
-95.21259155320938
 30
0.0
 10
152.2326451507101
 20
-95.79249054035462
 30
0.0
 10
151.7625441381176
 20
-96.26259155294713
 30
0.0
 10
151.1826451509724
 20
-96.26259155294713
 30
0.0
 10
150.6027461638272
 20
-96.26259155294713
 30
0.0
 10
150.1326451512347
 20
-95.79249054035462
 30
0.0
 10
150.1326451512347
 20
-95.21259155320938
 30
0.0
 10
150.1326451512347
 20
-94.63269256606415
 30
0.0
 10
150.6027461638272
 20
-94.16259155347164
 30
0.0
 10
151.1826451509724
 20
-94.16259155347164
 30
0.0
 10
151.7625441381176
 20
-94.16259155347164
 30
0.0
 10
152.2326451507101
 20
-94.63269256606415
 30
0.0
 10
152.2326451507101
 20
-95.21259155320938
 30
0.0
  0
SPLINE
  5
46
330
1F
100
AcDbEntity
  8
Capa 1
 62
    29
370
    20
100
AcDbSpline
210
0.0
220
0.0
230
1.0
 70
    11
 71
     3
 72
    17
 73
    13
 74
     0
 42
0.0000000001
 43
0.0000000001
 12
1.0
 22
0.0
 32
0.0
 13
1.0
 23
0.0
 33
0.0
 40
0.0
 40
0.0
 40
0.0
 40
0.0
 40
1.0
 40
1.0
 40
1.0
 40
2.0
 40
2.0
 40
2.0
 40
3.0
 40
3.0
 40
3.0
 40
4.0
 40
4.0
 40
4.0
 40
4.0
 10
131.6750035794535
 20
-87.02682221254194
 30
0.0
 10
131.6750035794535
 20
-87.60672119968685
 30
0.0
 10
131.204902566861
 20
-88.07682221227968
 30
0.0
 10
130.6250035797157
 20
-88.07682221227968
 30
0.0
 10
130.0451045925705
 20
-88.07682221227968
 30
0.0
 10
129.575003579978
 20
-87.60672119968685
 30
0.0
 10
129.575003579978
 20
-87.02682221254194
 30
0.0
 10
129.575003579978
 20
-86.4469232253967
 30
0.0
 10
130.0451045925705
 20
-85.9768222128042
 30
0.0
 10
130.6250035797157
 20
-85.9768222128042
 30
0.0
 10
131.204902566861
 20
-85.9768222128042
 30
0.0
 10
131.6750035794535
 20
-86.4469232253967
 30
0.0
 10
131.6750035794535
 20
-87.02682221254194
 30
0.0
  0
SPLINE
  5
47
330
1F
100
AcDbEntity
  8
Capa 1
 62
    29
370
    20
100
AcDbSpline
210
0.0
220
0.0
230
1.0
 70
    11
 71
     3
 72
    17
 73
    13
 74
     0
 42
0.0000000001
 43
0.0000000001
 12
1.0
 22
0.0
 32
0.0
 13
1.0
 23
0.0
 33
0.0
 40
0.0
 40
0.0
 40
0.0
 40
0.0
 40
1.0
 40
1.0
 40
1.0
 40
2.0
 40
2.0
 40
2.0
 40
3.0
 40
3.0
 40
3.0
 40
4.0
 40
4.0
 40
4.0
 40
4.0
 10
81.79468242964643
 20
-86.39682190752366
 30
0.0
 10
81.79468242964643
 20
-86.97672089466889
 30
0.0
 10
81.32458141705392
 20
-87.4468219072614
 30
0.0
 10
80.744682429909
 20
-87.4468219072614
 30
0.0
 10
80.16478344276442
 20
-87.4468219072614
 30
0.0
 10
79.69468243017191
 20
-86.97672089466889
 30
0.0
 10
79.69468243017191
 20
-86.39682190752366
 30
0.0
 10
79.69468243017191
 20
-85.8169229203781
 30
0.0
 10
80.16478344276442
 20
-85.34682190778624
 30
0.0
 10
80.744682429909
 20
-85.34682190778624
 30
0.0
 10
81.32458141705392
 20
-85.34682190778624
 30
0.0
 10
81.79468242964643
 20
-85.8169229203781
 30
0.0
 10
81.79468242964643
 20
-86.39682190752366
 30
0.0
  0
SPLINE
  5
48
330
1F
100
AcDbEntity
  8
Capa 1
 62
    29
370
    20
100
AcDbSpline
210
0.0
220
0.0
230
1.0
 70
    11
 71
     3
 72
    17
 73
    13
 74
     0
 42
0.0000000001
 43
0.0000000001
 12
1.0
 22
0.0
 32
0.0
 13
1.0
 23
0.0
 33
0.0
 40
0.0
 40
0.0
 40
0.0
 40
0.0
 40
1.0
 40
1.0
 40
1.0
 40
2.0
 40
2.0
 40
2.0
 40
3.0
 40
3.0
 40
3.0
 40
4.0
 40
4.0
 40
4.0
 40
4.0
 10
33.08195073605305
 20
-97.18594224716048
 30
0.0
 10
33.08195073605305
 20
-97.76584123430573
 30
0.0
 10
32.61184972346054
 20
-98.23594224689823
 30
0.0
 10
32.03195073631563
 20
-98.23594224689823
 30
0.0
 10
31.45205174917072
 20
-98.23594224689823
 30
0.0
 10
30.98195073657821
 20
-97.76584123430573
 30
0.0
 10
30.98195073657821
 20
-97.18594224716048
 30
0.0
 10
30.98195073657821
 20
-96.60604326001526
 30
0.0
 10
31.45205174917072
 20
-96.13594224742275
 30
0.0
 10
32.03195073631563
 20
-96.13594224742275
 30
0.0
 10
32.61184972346054
 20
-96.13594224742275
 30
0.0
 10
33.08195073605305
 20
-96.60604326001526
 30
0.0
 10
33.08195073605305
 20
-97.18594224716048
 30
0.0
  0
SPLINE
  5
49
330
1F
100
AcDbEntity
  8
Capa 1
 62
    29
370
    20
100
AcDbSpline
210
0.0
220
0.0
230
1.0
 70
    11
 71
     3
 72
    17
 73
    13
 74
     0
 42
0.0000000001
 43
0.0000000001
 12
1.0
 22
0.0
 32
0.0
 13
1.0
 23
0.0
 33
0.0
 40
0.0
 40
0.0
 40
0.0
 40
0.0
 40
1.0
 40
1.0
 40
1.0
 40
2.0
 40
2.0
 40
2.0
 40
3.0
 40
3.0
 40
3.0
 40
4.0
 40
4.0
 40
4.0
 40
4.0
 10
54.42500527696753
 20
-118.1832764096036
 30
0.0
 10
54.42500527696753
 20
-118.7631753967485
 30
0.0
 10
53.95490426437502
 20
-119.2332764093413
 30
0.0
 10
53.37500527723011
 20
-119.2332764093413
 30
0.0
 10
52.79510629008519
 20
-119.2332764093413
 30
0.0
 10
52.32500527749269
 20
-118.7631753967485
 30
0.0
 10
52.32500527749269
 20
-118.1832764096036
 30
0.0
 10
52.32500527749269
 20
-117.6033774224583
 30
0.0
 10
52.79510629008519
 20
-117.1332764098658
 30
0.0
 10
53.37500527723011
 20
-117.1332764098658
 30
0.0
 10
53.95490426437502
 20
-117.1332764098658
 30
0.0
 10
54.42500527696753
 20
-117.6033774224583
 30
0.0
 10
54.42500527696753
 20
-118.1832764096036
 30
0.0
  0
SPLINE
  5
4A
330
1F
100
AcDbEntity
  8
Capa 1
 62
    29
370
    20
100
AcDbSpline
210
0.0
220
0.0
230
1.0
 70
    11
 71
     3
 72
    17
 73
    13
 74
     0
 42
0.0000000001
 43
0.0000000001
 12
1.0
 22
0.0
 32
0.0
 13
1.0
 23
0.0
 33
0.0
 40
0.0
 40
0.0
 40
0.0
 40
0.0
 40
1.0
 40
1.0
 40
1.0
 40
2.0
 40
2.0
 40
2.0
 40
3.0
 40
3.0
 40
3.0
 40
4.0
 40
4.0
 40
4.0
 40
4.0
 10
54.42500527696753
 20
-156.283275727208
 30
0.0
 10
54.42500527696753
 20
-156.8631747143532
 30
0.0
 10
53.95490426437502
 20
-157.3332757269458
 30
0.0
 10
53.37500527723011
 20
-157.3332757269458
 30
0.0
 10
52.79510629008519
 20
-157.3332757269458
 30
0.0
 10
52.32500527749269
 20
-156.8631747143532
 30
0.0
 10
52.32500527749269
 20
-156.283275727208
 30
0.0
 10
52.32500527749269
 20
-155.7033767400628
 30
0.0
 10
52.79510629008519
 20
-155.2332757274703
 30
0.0
 10
53.37500527723011
 20
-155.2332757274703
 30
0.0
 10
53.95490426437502
 20
-155.2332757274703
 30
0.0
 10
54.42500527696753
 20
-155.7033767400628
 30
0.0
 10
54.42500527696753
 20
-156.283275727208
 30
0.0
  0
SPLINE
  5
4B
330
1F
100
AcDbEntity
  8
Capa 1
 62
    29
370
    20
100
AcDbSpline
210
0.0
220
0.0
230
1.0
 70
    11
 71
     3
 72
    17
 73
    13
 74
     0
 42
0.0000000001
 43
0.0000000001
 12
1.0
 22
0.0
 32
0.0
 13
1.0
 23
0.0
 33
0.0
 40
0.0
 40
0.0
 40
0.0
 40
0.0
 40
1.0
 40
1.0
 40
1.0
 40
2.0
 40
2.0
 40
2.0
 40
3.0
 40
3.0
 40
3.0
 40
4.0
 40
4.0
 40
4.0
 40
4.0
 10
130.6250035757423
 20
-152.7115295827466
 30
0.0
 10
130.6250035757423
 20
-153.2914285698918
 30
0.0
 10
130.1549025631498
 20
-153.7615295824843
 30
0.0
 10
129.5750035760046
 20
-153.7615295824843
 30
0.0
 10
128.9951045888593
 20
-153.7615295824843
 30
0.0
 10
128.5250035762668
 20
-153.2914285698918
 30
0.0
 10
128.5250035762668
 20
-152.7115295827466
 30
0.0
 10
128.5250035762668
 20
-152.1316305956013
 30
0.0
 10
128.9951045888593
 20
-151.6615295830088
 30
0.0
 10
129.5750035760046
 20
-151.6615295830088
 30
0.0
 10
130.1549025631498
 20
-151.6615295830088
 30
0.0
 10
130.6250035757423
 20
-152.1316305956013
 30
0.0
 10
130.6250035757423
 20
-152.7115295827466
 30
0.0
  0
SPLINE
  5
4C
330
1F
100
AcDbEntity
  8
Capa 1
 62
    29
370
    20
100
AcDbSpline
210
0.0
220
0.0
230
1.0
 70
    11
 71
     3
 72
    17
 73
    13
 74
     0
 42
0.0000000001
 43
0.0000000001
 12
1.0
 22
0.0
 32
0.0
 13
1.0
 23
0.0
 33
0.0
 40
0.0
 40
0.0
 40
0.0
 40
0.0
 40
1.0
 40
1.0
 40
1.0
 40
2.0
 40
2.0
 40
2.0
 40
3.0
 40
3.0
 40
3.0
 40
4.0
 40
4.0
 40
4.0
 40
4.0
 10
130.6250035757423
 20
-114.611529928707
 30
0.0
 10
130.6250035757423
 20
-115.1914289158522
 30
0.0
 10
130.1549025631498
 20
-115.6615299284448
 30
0.0
 10
129.5750035760046
 20
-115.6615299284448
 30
0.0
 10
128.9951045888593
 20
-115.6615299284448
 30
0.0
 10
128.5250035762668
 20
-115.1914289158522
 30
0.0
 10
128.5250035762668
 20
-114.611529928707
 30
0.0
 10
128.5250035762668
 20
-114.0316309415618
 30
0.0
 10
128.9951045888593
 20
-113.5615299289693
 30
0.0
 10
129.5750035760046
 20
-113.5615299289693
 30
0.0
 10
130.1549025631498
 20
-113.5615299289693
 30
0.0
 10
130.6250035757423
 20
-114.0316309415618
 30
0.0
 10
130.6250035757423
 20
-114.611529928707
 30
0.0
  0
SPLINE
  5
4D
330
1F
100
AcDbEntity
  8
Capa 1
 62
    29
370
    20
100
AcDbSpline
210
0.0
220
0.0
230
1.0
 70
    11
 71
     3
 72
    17
 73
    13
 74
     0
 42
0.0000000001
 43
0.0000000001
 12
1.0
 22
0.0
 32
0.0
 13
1.0
 23
0.0
 33
0.0
 40
0.0
 40
0.0
 40
0.0
 40
0.0
 40
1.0
 40
1.0
 40
1.0
 40
2.0
 40
2.0
 40
2.0
 40
3.0
 40
3.0
 40
3.0
 40
4.0
 40
4.0
 40
4.0
 40
4.0
 10
164.8536020323762
 20
-160.7444892992439
 30
0.0
 10
164.8536020323762
 20
-161.3243882863891
 30
0.0
 10
164.3835010197837
 20
-161.7944892989816
 30
0.0
 10
163.8036020326384
 20
-161.7944892989816
 30
0.0
 10
163.2237030454932
 20
-161.7944892989816
 30
0.0
 10
162.7536020329007
 20
-161.3243882863891
 30
0.0
 10
162.7536020329007
 20
-160.7444892992439
 30
0.0
 10
162.7536020329007
 20
-160.1645903120987
 30
0.0
 10
163.2237030454932
 20
-159.6944892995061
 30
0.0
 10
163.8036020326384
 20
-159.6944892995061
 30
0.0
 10
164.3835010197837
 20
-159.6944892995061
 30
0.0
 10
164.8536020323762
 20
-160.1645903120987
 30
0.0
 10
164.8536020323762
 20
-160.7444892992439
 30
0.0
  0
SPLINE
  5
4E
330
1F
100
AcDbEntity
  8
Capa 1
 62
    29
370
    20
100
AcDbSpline
210
0.0
220
0.0
230
1.0
 70
    11
 71
     3
 72
    17
 73
    13
 74
     0
 42
0.0000000001
 43
0.0000000001
 12
1.0
 22
0.0
 32
0.0
 13
1.0
 23
0.0
 33
0.0
 40
0.0
 40
0.0
 40
0.0
 40
0.0
 40
1.0
 40
1.0
 40
1.0
 40
2.0
 40
2.0
 40
2.0
 40
3.0
 40
3.0
 40
3.0
 40
4.0
 40
4.0
 40
4.0
 40
4.0
 10
152.6736173610688
 20
-143.1940439223281
 30
0.0
 10
152.6736173610688
 20
-143.7739429094733
 30
0.0
 10
152.2035163484763
 20
-144.2440439220659
 30
0.0
 10
151.623617361331
 20
-144.2440439220659
 30
0.0
 10
151.0437183741858
 20
-144.2440439220659
 30
0.0
 10
150.5736173615933
 20
-143.7739429094733
 30
0.0
 10
150.5736173615933
 20
-143.1940439223281
 30
0.0
 10
150.5736173615933
 20
-142.6141449351829
 30
0.0
 10
151.0437183741858
 20
-142.1440439225904
 30
0.0
 10
151.623617361331
 20
-142.1440439225904
 30
0.0
 10
152.2035163484763
 20
-142.1440439225904
 30
0.0
 10
152.6736173610688
 20
-142.6141449351829
 30
0.0
 10
152.6736173610688
 20
-143.1940439223281
 30
0.0
  0
SPLINE
  5
4F
330
1F
100
AcDbEntity
  8
Capa 1
 62
    29
370
    20
100
AcDbSpline
210
0.0
220
0.0
230
1.0
 70
    11
 71
     3
 72
    17
 73
    13
 74
     0
 42
0.0000000001
 43
0.0000000001
 12
1.0
 22
0.0
 32
0.0
 13
1.0
 23
0.0
 33
0.0
 40
0.0
 40
0.0
 40
0.0
 40
0.0
 40
1.0
 40
1.0
 40
1.0
 40
2.0
 40
2.0
 40
2.0
 40
3.0
 40
3.0
 40
3.0
 40
4.0
 40
4.0
 40
4.0
 40
4.0
 10
147.2629982531144
 20
-179.4763452616101
 30
0.0
 10
147.2629982531144
 20
-180.0562442487553
 30
0.0
 10
146.7928972405219
 20
-180.5263452613478
 30
0.0
 10
146.2129982533766
 20
-180.5263452613478
 30
0.0
 10
145.6330992662314
 20
-180.5263452613478
 30
0.0
 10
145.1629982536389
 20
-180.0562442487553
 30
0.0
 10
145.1629982536389
 20
-179.4763452616101
 30
0.0
 10
145.1629982536389
 20
-178.8964462744648
 30
0.0
 10
145.6330992662314
 20
-178.4263452618723
 30
0.0
 10
146.2129982533766
 20
-178.4263452618723
 30
0.0
 10
146.7928972405219
 20
-178.4263452618723
 30
0.0
 10
147.2629982531144
 20
-178.8964462744648
 30
0.0
 10
147.2629982531144
 20
-179.4763452616101
 30
0.0
  0
POLYLINE
  5
50
330
1F
100
AcDbEntity
  8
Capa 1
 62
    29
370
    20
100
AcDb2dPolyline
 66
     1
 10
0.0
 20
0.0
 30
0.0
  0
VERTEX
  5
51
330
50
100
AcDbEntity
  8
Capa 1
 62
    29
370
    20
100
AcDbVertex
100
AcDb2dVertex
 10
122.6595816239412
 20
-177.926686644484
 30
0.0
  0
VERTEX
  5
52
330
50
100
AcDbEntity
  8
Capa 1
 62
    29
370
    20
100
AcDbVertex
100
AcDb2dVertex
 10
122.6595816239412
 20
-178.5266850846786
 30
0.0
  0
VERTEX
  5
53
330
50
100
AcDbEntity
  8
Capa 1
 62
    29
370
    20
100
AcDbVertex
100
AcDb2dVertex
 10
121.8595786174182
 20
-178.5266850846786
 30
0.0
  0
VERTEX
  5
54
330
50
100
AcDbEntity
  8
Capa 1
 62
    29
370
    20
100
AcDbVertex
100
AcDb2dVertex
 10
121.8595786174182
 20
-191.1766858952856
 30
0.0
  0
VERTEX
  5
55
330
50
100
AcDbEntity
  8
Capa 1
 62
    29
370
    20
100
AcDbVertex
100
AcDb2dVertex
 10
122.6595816239412
 20
-191.1766858952856
 30
0.0
  0
VERTEX
  5
56
330
50
100
AcDbEntity
  8
Capa 1
 62
    29
370
    20
100
AcDbVertex
100
AcDb2dVertex
 10
122.6595816239412
 20
-191.7766843354802
 30
0.0
  0
VERTEX
  5
57
330
50
100
AcDbEntity
  8
Capa 1
 62
    29
370
    20
100
AcDbVertex
100
AcDb2dVertex
 10
136.509579314938
 20
-191.7766843354802
 30
0.0
  0
VERTEX
  5
58
330
50
100
AcDbEntity
  8
Capa 1
 62
    29
370
    20
100
AcDbVertex
100
AcDb2dVertex
 10
136.509579314938
 20
-191.1766858952856
 30
0.0
  0
VERTEX
  5
59
330
50
100
AcDbEntity
  8
Capa 1
 62
    29
370
    20
100
AcDbVertex
100
AcDb2dVertex
 10
137.309582321461
 20
-191.1766858952856
 30
0.0
  0
VERTEX
  5
5A
330
50
100
AcDbEntity
  8
Capa 1
 62
    29
370
    20
100
AcDbVertex
100
AcDb2dVertex
 10
137.309582321461
 20
-178.5266850846786
 30
0.0
  0
VERTEX
  5
5B
330
50
100
AcDbEntity
  8
Capa 1
 62
    29
370
    20
100
AcDbVertex
100
AcDb2dVertex
 10
136.509579314938
 20
-178.5266850846786
 30
0.0
  0
VERTEX
  5
5C
330
50
100
AcDbEntity
  8
Capa 1
 62
    29
370
    20
100
AcDbVertex
100
AcDb2dVertex
 10
136.509579314938
 20
-177.926686644484
 30
0.0
  0
VERTEX
  5
5D
330
50
100
AcDbEntity
  8
Capa 1
 62
    29
370
    20
100
AcDbVertex
100
AcDb2dVertex
 10
122.6595816239412
 20
-177.926686644484
 30
0.0
  0
SEQEND
  5
5E
330
50
100
AcDbEntity
  8
Capa 1
 62
    29
370
    20
  0
POLYLINE
  5
5F
330
1F
100
AcDbEntity
  8
Capa 1
 62
    29
370
    20
100
AcDb2dPolyline
 66
     1
 10
0.0
 20
0.0
 30
0.0
  0
VERTEX
  5
60
330
5F
100
AcDbEntity
  8
Capa 1
 62
    29
370
    20
100
AcDbVertex
100
AcDb2dVertex
 10
103.6095796493329
 20
-175.5456900750118
 30
0.0
  0
VERTEX
  5
61
330
5F
100
AcDbEntity
  8
Capa 1
 62
    29
370
    20
100
AcDbVertex
100
AcDb2dVertex
 10
103.6095796493329
 20
-176.1456885152064
 30
0.0
  0
VERTEX
  5
62
330
5F
100
AcDbEntity
  8
Capa 1
 62
    29
370
    20
100
AcDbVertex
100
AcDb2dVertex
 10
102.809584272204
 20
-176.1456885152064
 30
0.0
  0
VERTEX
  5
63
330
5F
100
AcDbEntity
  8
Capa 1
 62
    29
370
    20
100
AcDbVertex
100
AcDb2dVertex
 10
102.809584272204
 20
-188.7956893258134
 30
0.0
  0
VERTEX
  5
64
330
5F
100
AcDbEntity
  8
Capa 1
 62
    29
370
    20
100
AcDbVertex
100
AcDb2dVertex
 10
103.6095796493329
 20
-188.7956893258134
 30
0.0
  0
VERTEX
  5
65
330
5F
100
AcDbEntity
  8
Capa 1
 62
    29
370
    20
100
AcDbVertex
100
AcDb2dVertex
 10
103.6095796493329
 20
-189.3956877660079
 30
0.0
  0
VERTEX
  5
66
330
5F
100
AcDbEntity
  8
Capa 1
 62
    29
370
    20
100
AcDbVertex
100
AcDb2dVertex
 10
117.4595773403298
 20
-189.3956877660079
 30
0.0
  0
VERTEX
  5
67
330
5F
100
AcDbEntity
  8
Capa 1
 62
    29
370
    20
100
AcDbVertex
100
AcDb2dVertex
 10
117.4595773403298
 20
-188.7956893258134
 30
0.0
  0
VERTEX
  5
68
330
5F
100
AcDbEntity
  8
Capa 1
 62
    29
370
    20
100
AcDbVertex
100
AcDb2dVertex
 10
118.2595803468528
 20
-188.7956893258134
 30
0.0
  0
VERTEX
  5
69
330
5F
100
AcDbEntity
  8
Capa 1
 62
    29
370
    20
100
AcDbVertex
100
AcDb2dVertex
 10
118.2595803468528
 20
-176.1456885152064
 30
0.0
  0
VERTEX
  5
6A
330
5F
100
AcDbEntity
  8
Capa 1
 62
    29
370
    20
100
AcDbVertex
100
AcDb2dVertex
 10
117.4595773403298
 20
-176.1456885152064
 30
0.0
  0
VERTEX
  5
6B
330
5F
100
AcDbEntity
  8
Capa 1
 62
    29
370
    20
100
AcDbVertex
100
AcDb2dVertex
 10
117.4595773403298
 20
-175.5456900750118
 30
0.0
  0
VERTEX
  5
6C
330
5F
100
AcDbEntity
  8
Capa 1
 62
    29
370
    20
100
AcDbVertex
100
AcDb2dVertex
 10
103.6095796493329
 20
-175.5456900750118
 30
0.0
  0
SEQEND
  5
6D
330
5F
100
AcDbEntity
  8
Capa 1
 62
    29
370
    20
  0
POLYLINE
  5
6E
330
1F
100
AcDbEntity
  8
Capa 1
 62
    29
370
    20
100
AcDb2dPolyline
 66
     1
 10
0.0
 20
0.0
 30
0.0
  0
VERTEX
  5
6F
330
6E
100
AcDbEntity
  8
Capa 1
 62
    29
370
    20
100
AcDbVertex
100
AcDb2dVertex
 10
36.93458513596944
 20
-158.8766922992692
 30
0.0
  0
VERTEX
  5
70
330
6E
100
AcDbEntity
  8
Capa 1
 62
    29
370
    20
100
AcDbVertex
100
AcDb2dVertex
 10
36.93458513596944
 20
-159.4766907394651
 30
0.0
  0
VERTEX
  5
71
330
6E
100
AcDbEntity
  8
Capa 1
 62
    29
370
    20
100
AcDbVertex
100
AcDb2dVertex
 10
36.13458499046928
 20
-159.4766907394651
 30
0.0
  0
VERTEX
  5
72
330
6E
100
AcDbEntity
  8
Capa 1
 62
    29
370
    20
100
AcDbVertex
100
AcDb2dVertex
 10
36.13458499046928
 20
-172.1266915500708
 30
0.0
  0
VERTEX
  5
73
330
6E
100
AcDbEntity
  8
Capa 1
 62
    29
370
    20
100
AcDbVertex
100
AcDb2dVertex
 10
36.93458513596944
 20
-172.1266915500708
 30
0.0
  0
VERTEX
  5
74
330
6E
100
AcDbEntity
  8
Capa 1
 62
    29
370
    20
100
AcDbVertex
100
AcDb2dVertex
 10
36.93458513596944
 20
-172.7266899902667
 30
0.0
  0
VERTEX
  5
75
330
6E
100
AcDbEntity
  8
Capa 1
 62
    29
370
    20
100
AcDbVertex
100
AcDb2dVertex
 10
50.78458378064075
 20
-172.7266899902667
 30
0.0
  0
VERTEX
  5
76
330
6E
100
AcDbEntity
  8
Capa 1
 62
    29
370
    20
100
AcDbVertex
100
AcDb2dVertex
 10
50.78458378064075
 20
-172.1266915500708
 30
0.0
  0
VERTEX
  5
77
330
6E
100
AcDbEntity
  8
Capa 1
 62
    29
370
    20
100
AcDbVertex
100
AcDb2dVertex
 10
51.58458487981508
 20
-172.1266915500708
 30
0.0
  0
VERTEX
  5
78
330
6E
100
AcDbEntity
  8
Capa 1
 62
    29
370
    20
100
AcDbVertex
100
AcDb2dVertex
 10
51.58458487981508
 20
-159.4766907394651
 30
0.0
  0
VERTEX
  5
79
330
6E
100
AcDbEntity
  8
Capa 1
 62
    29
370
    20
100
AcDbVertex
100
AcDb2dVertex
 10
50.78458378064075
 20
-159.4766907394651
 30
0.0
  0
VERTEX
  5
7A
330
6E
100
AcDbEntity
  8
Capa 1
 62
    29
370
    20
100
AcDbVertex
100
AcDb2dVertex
 10
50.78458378064075
 20
-158.8766922992692
 30
0.0
  0
VERTEX
  5
7B
330
6E
100
AcDbEntity
  8
Capa 1
 62
    29
370
    20
100
AcDbVertex
100
AcDb2dVertex
 10
36.93458513596944
 20
-158.8766922992692
 30
0.0
  0
SEQEND
  5
7C
330
6E
100
AcDbEntity
  8
Capa 1
 62
    29
370
    20
  0
POLYLINE
  5
7D
330
1F
100
AcDbEntity
  8
Capa 1
 62
    29
370
    20
100
AcDb2dPolyline
 66
     1
 10
0.0
 20
0.0
 30
0.0
  0
VERTEX
  5
7E
330
7D
100
AcDbEntity
  8
Capa 1
 62
    29
370
    20
100
AcDbVertex
100
AcDb2dVertex
 10
55.98458424955481
 20
-158.8766922992692
 30
0.0
  0
VERTEX
  5
7F
330
7D
100
AcDbEntity
  8
Capa 1
 62
    29
370
    20
100
AcDbVertex
100
AcDb2dVertex
 10
55.98458424955481
 20
-159.4766907394651
 30
0.0
  0
VERTEX
  5
80
330
7D
100
AcDbEntity
  8
Capa 1
 62
    29
370
    20
100
AcDbVertex
100
AcDb2dVertex
 10
55.1845831503808
 20
-159.4766907394651
 30
0.0
  0
VERTEX
  5
81
330
7D
100
AcDbEntity
  8
Capa 1
 62
    29
370
    20
100
AcDbVertex
100
AcDb2dVertex
 10
55.1845831503808
 20
-172.1266915500708
 30
0.0
  0
VERTEX
  5
82
330
7D
100
AcDbEntity
  8
Capa 1
 62
    29
370
    20
100
AcDbVertex
100
AcDb2dVertex
 10
55.98458424955481
 20
-172.1266915500708
 30
0.0
  0
VERTEX
  5
83
330
7D
100
AcDbEntity
  8
Capa 1
 62
    29
370
    20
100
AcDbVertex
100
AcDb2dVertex
 10
55.98458424955481
 20
-172.7266899902667
 30
0.0
  0
VERTEX
  5
84
330
7D
100
AcDbEntity
  8
Capa 1
 62
    29
370
    20
100
AcDbVertex
100
AcDb2dVertex
 10
69.83458384789998
 20
-172.7266899902667
 30
0.0
  0
VERTEX
  5
85
330
7D
100
AcDbEntity
  8
Capa 1
 62
    29
370
    20
100
AcDbVertex
100
AcDb2dVertex
 10
69.83458384789998
 20
-172.1266915500708
 30
0.0
  0
VERTEX
  5
86
330
7D
100
AcDbEntity
  8
Capa 1
 62
    29
370
    20
100
AcDbVertex
100
AcDb2dVertex
 10
70.63458303972628
 20
-172.1266915500708
 30
0.0
  0
VERTEX
  5
87
330
7D
100
AcDbEntity
  8
Capa 1
 62
    29
370
    20
100
AcDbVertex
100
AcDb2dVertex
 10
70.63458303972628
 20
-159.4766907394651
 30
0.0
  0
VERTEX
  5
88
330
7D
100
AcDbEntity
  8
Capa 1
 62
    29
370
    20
100
AcDbVertex
100
AcDb2dVertex
 10
69.83458384789998
 20
-159.4766907394651
 30
0.0
  0
VERTEX
  5
89
330
7D
100
AcDbEntity
  8
Capa 1
 62
    29
370
    20
100
AcDbVertex
100
AcDb2dVertex
 10
69.83458384789998
 20
-158.8766922992692
 30
0.0
  0
VERTEX
  5
8A
330
7D
100
AcDbEntity
  8
Capa 1
 62
    29
370
    20
100
AcDbVertex
100
AcDb2dVertex
 10
55.98458424955481
 20
-158.8766922992692
 30
0.0
  0
SEQEND
  5
8B
330
7D
100
AcDbEntity
  8
Capa 1
 62
    29
370
    20
  0
POLYLINE
  5
8C
330
1F
100
AcDbEntity
  8
Capa 1
 62
    29
370
    20
100
AcDb2dPolyline
 66
     1
 10
0.0
 20
0.0
 30
0.0
  0
VERTEX
  5
8D
330
8C
100
AcDbEntity
  8
Capa 1
 62
    29
370
    20
100
AcDbVertex
100
AcDb2dVertex
 10
132.1845826112453
 20
-156.4956881004022
 30
0.0
  0
VERTEX
  5
8E
330
8C
100
AcDbEntity
  8
Capa 1
 62
    29
370
    20
100
AcDbVertex
100
AcDb2dVertex
 10
132.1845826112453
 20
-157.0956865405981
 30
0.0
  0
VERTEX
  5
8F
330
8C
100
AcDbEntity
  8
Capa 1
 62
    29
370
    20
100
AcDbVertex
100
AcDb2dVertex
 10
131.3845796047223
 20
-157.0956865405981
 30
0.0
  0
VERTEX
  5
90
330
8C
100
AcDbEntity
  8
Capa 1
 62
    29
370
    20
100
AcDbVertex
100
AcDb2dVertex
 10
131.3845796047223
 20
-169.7456873512039
 30
0.0
  0
VERTEX
  5
91
330
8C
100
AcDbEntity
  8
Capa 1
 62
    29
370
    20
100
AcDbVertex
100
AcDb2dVertex
 10
132.1845826112453
 20
-169.7456873512039
 30
0.0
  0
VERTEX
  5
92
330
8C
100
AcDbEntity
  8
Capa 1
 62
    29
370
    20
100
AcDbVertex
100
AcDb2dVertex
 10
132.1845826112453
 20
-170.3456857913997
 30
0.0
  0
VERTEX
  5
93
330
8C
100
AcDbEntity
  8
Capa 1
 62
    29
370
    20
100
AcDbVertex
100
AcDb2dVertex
 10
146.0345803022421
 20
-170.3456857913997
 30
0.0
  0
VERTEX
  5
94
330
8C
100
AcDbEntity
  8
Capa 1
 62
    29
370
    20
100
AcDbVertex
100
AcDb2dVertex
 10
146.0345803022421
 20
-169.7456873512039
 30
0.0
  0
VERTEX
  5
95
330
8C
100
AcDbEntity
  8
Capa 1
 62
    29
370
    20
100
AcDbVertex
100
AcDb2dVertex
 10
146.834575679371
 20
-169.7456873512039
 30
0.0
  0
VERTEX
  5
96
330
8C
100
AcDbEntity
  8
Capa 1
 62
    29
370
    20
100
AcDbVertex
100
AcDb2dVertex
 10
146.834575679371
 20
-157.0956865405981
 30
0.0
  0
VERTEX
  5
97
330
8C
100
AcDbEntity
  8
Capa 1
 62
    29
370
    20
100
AcDbVertex
100
AcDb2dVertex
 10
146.0345803022421
 20
-157.0956865405981
 30
0.0
  0
VERTEX
  5
98
330
8C
100
AcDbEntity
  8
Capa 1
 62
    29
370
    20
100
AcDbVertex
100
AcDb2dVertex
 10
146.0345803022421
 20
-156.4956881004022
 30
0.0
  0
VERTEX
  5
99
330
8C
100
AcDbEntity
  8
Capa 1
 62
    29
370
    20
100
AcDbVertex
100
AcDb2dVertex
 10
132.1845826112453
 20
-156.4956881004022
 30
0.0
  0
SEQEND
  5
9A
330
8C
100
AcDbEntity
  8
Capa 1
 62
    29
370
    20
  0
POLYLINE
  5
9B
330
1F
100
AcDbEntity
  8
Capa 1
 62
    29
370
    20
100
AcDb2dPolyline
 66
     1
 10
0.0
 20
0.0
 30
0.0
  0
VERTEX
  5
9C
330
9B
100
AcDbEntity
  8
Capa 1
 62
    29
370
    20
100
AcDbVertex
100
AcDb2dVertex
 10
75.03458431681469
 20
-154.1146915309313
 30
0.0
  0
VERTEX
  5
9D
330
9B
100
AcDbEntity
  8
Capa 1
 62
    29
370
    20
100
AcDbVertex
100
AcDb2dVertex
 10
75.03458431681469
 20
-154.7146899711259
 30
0.0
  0
VERTEX
  5
9E
330
9B
100
AcDbEntity
  8
Capa 1
 62
    29
370
    20
100
AcDbVertex
100
AcDb2dVertex
 10
74.23458131029166
 20
-154.7146899711259
 30
0.0
  0
VERTEX
  5
9F
330
9B
100
AcDbEntity
  8
Capa 1
 62
    29
370
    20
100
AcDbVertex
100
AcDb2dVertex
 10
74.23458131029166
 20
-167.3646907817329
 30
0.0
  0
VERTEX
  5
A0
330
9B
100
AcDbEntity
  8
Capa 1
 62
    29
370
    20
100
AcDbVertex
100
AcDb2dVertex
 10
75.03458431681469
 20
-167.3646907817329
 30
0.0
  0
VERTEX
  5
A1
330
9B
100
AcDbEntity
  8
Capa 1
 62
    29
370
    20
100
AcDbVertex
100
AcDb2dVertex
 10
75.03458431681469
 20
-167.9646892219275
 30
0.0
  0
VERTEX
  5
A2
330
9B
100
AcDbEntity
  8
Capa 1
 62
    29
370
    20
100
AcDbVertex
100
AcDb2dVertex
 10
88.8845820078115
 20
-167.9646892219275
 30
0.0
  0
VERTEX
  5
A3
330
9B
100
AcDbEntity
  8
Capa 1
 62
    29
370
    20
100
AcDbVertex
100
AcDb2dVertex
 10
88.8845820078115
 20
-167.3646907817329
 30
0.0
  0
VERTEX
  5
A4
330
9B
100
AcDbEntity
  8
Capa 1
 62
    29
370
    20
100
AcDbVertex
100
AcDb2dVertex
 10
89.68458119963779
 20
-167.3646907817329
 30
0.0
  0
VERTEX
  5
A5
330
9B
100
AcDbEntity
  8
Capa 1
 62
    29
370
    20
100
AcDbVertex
100
AcDb2dVertex
 10
89.68458119963779
 20
-154.7146899711259
 30
0.0
  0
VERTEX
  5
A6
330
9B
100
AcDbEntity
  8
Capa 1
 62
    29
370
    20
100
AcDbVertex
100
AcDb2dVertex
 10
88.8845820078115
 20
-154.7146899711259
 30
0.0
  0
VERTEX
  5
A7
330
9B
100
AcDbEntity
  8
Capa 1
 62
    29
370
    20
100
AcDbVertex
100
AcDb2dVertex
 10
88.8845820078115
 20
-154.1146915309313
 30
0.0
  0
VERTEX
  5
A8
330
9B
100
AcDbEntity
  8
Capa 1
 62
    29
370
    20
100
AcDbVertex
100
AcDb2dVertex
 10
75.03458431681469
 20
-154.1146915309313
 30
0.0
  0
SEQEND
  5
A9
330
9B
100
AcDbEntity
  8
Capa 1
 62
    29
370
    20
  0
POLYLINE
  5
AA
330
1F
100
AcDbEntity
  8
Capa 1
 62
    29
370
    20
100
AcDb2dPolyline
 66
     1
 10
0.0
 20
0.0
 30
0.0
  0
VERTEX
  5
AB
330
AA
100
AcDbEntity
  8
Capa 1
 62
    29
370
    20
100
AcDbVertex
100
AcDb2dVertex
 10
113.1345806366371
 20
-154.1146915309313
 30
0.0
  0
VERTEX
  5
AC
330
AA
100
AcDbEntity
  8
Capa 1
 62
    29
370
    20
100
AcDbVertex
100
AcDb2dVertex
 10
113.1345806366371
 20
-154.7146899711259
 30
0.0
  0
VERTEX
  5
AD
330
AA
100
AcDbEntity
  8
Capa 1
 62
    29
370
    20
100
AcDbVertex
100
AcDb2dVertex
 10
112.334577630114
 20
-154.7146899711259
 30
0.0
  0
VERTEX
  5
AE
330
AA
100
AcDbEntity
  8
Capa 1
 62
    29
370
    20
100
AcDbVertex
100
AcDb2dVertex
 10
112.334577630114
 20
-167.3646907817329
 30
0.0
  0
VERTEX
  5
AF
330
AA
100
AcDbEntity
  8
Capa 1
 62
    29
370
    20
100
AcDbVertex
100
AcDb2dVertex
 10
113.1345806366371
 20
-167.3646907817329
 30
0.0
  0
VERTEX
  5
B0
330
AA
100
AcDbEntity
  8
Capa 1
 62
    29
370
    20
100
AcDbVertex
100
AcDb2dVertex
 10
113.1345806366371
 20
-167.9646892219275
 30
0.0
  0
VERTEX
  5
B1
330
AA
100
AcDbEntity
  8
Capa 1
 62
    29
370
    20
100
AcDbVertex
100
AcDb2dVertex
 10
126.9845783276339
 20
-167.9646892219275
 30
0.0
  0
VERTEX
  5
B2
330
AA
100
AcDbEntity
  8
Capa 1
 62
    29
370
    20
100
AcDbVertex
100
AcDb2dVertex
 10
126.9845783276339
 20
-167.3646907817329
 30
0.0
  0
VERTEX
  5
B3
330
AA
100
AcDbEntity
  8
Capa 1
 62
    29
370
    20
100
AcDbVertex
100
AcDb2dVertex
 10
127.7845813341569
 20
-167.3646907817329
 30
0.0
  0
VERTEX
  5
B4
330
AA
100
AcDbEntity
  8
Capa 1
 62
    29
370
    20
100
AcDbVertex
100
AcDb2dVertex
 10
127.7845813341569
 20
-154.7146899711259
 30
0.0
  0
VERTEX
  5
B5
330
AA
100
AcDbEntity
  8
Capa 1
 62
    29
370
    20
100
AcDbVertex
100
AcDb2dVertex
 10
126.9845783276339
 20
-154.7146899711259
 30
0.0
  0
VERTEX
  5
B6
330
AA
100
AcDbEntity
  8
Capa 1
 62
    29
370
    20
100
AcDbVertex
100
AcDb2dVertex
 10
126.9845783276339
 20
-154.1146915309313
 30
0.0
  0
VERTEX
  5
B7
330
AA
100
AcDbEntity
  8
Capa 1
 62
    29
370
    20
100
AcDbVertex
100
AcDb2dVertex
 10
113.1345806366371
 20
-154.1146915309313
 30
0.0
  0
SEQEND
  5
B8
330
AA
100
AcDbEntity
  8
Capa 1
 62
    29
370
    20
  0
POLYLINE
  5
B9
330
1F
100
AcDbEntity
  8
Capa 1
 62
    29
370
    20
100
AcDb2dPolyline
 66
     1
 10
0.0
 20
0.0
 30
0.0
  0
VERTEX
  5
BA
330
B9
100
AcDbEntity
  8
Capa 1
 62
    29
370
    20
100
AcDbVertex
100
AcDb2dVertex
 10
94.08457866202882
 20
-151.7336873320644
 30
0.0
  0
VERTEX
  5
BB
330
B9
100
AcDbEntity
  8
Capa 1
 62
    29
370
    20
100
AcDbVertex
100
AcDb2dVertex
 10
94.08457866202882
 20
-152.3336934016537
 30
0.0
  0
VERTEX
  5
BC
330
B9
100
AcDbEntity
  8
Capa 1
 62
    29
370
    20
100
AcDbVertex
100
AcDb2dVertex
 10
93.28458328489991
 20
-152.3336934016537
 30
0.0
  0
VERTEX
  5
BD
330
B9
100
AcDbEntity
  8
Capa 1
 62
    29
370
    20
100
AcDbVertex
100
AcDb2dVertex
 10
93.28458328489991
 20
-164.983686582866
 30
0.0
  0
VERTEX
  5
BE
330
B9
100
AcDbEntity
  8
Capa 1
 62
    29
370
    20
100
AcDbVertex
100
AcDb2dVertex
 10
94.08457866202882
 20
-164.983686582866
 30
0.0
  0
VERTEX
  5
BF
330
B9
100
AcDbEntity
  8
Capa 1
 62
    29
370
    20
100
AcDbVertex
100
AcDb2dVertex
 10
94.08457866202882
 20
-165.5836926524553
 30
0.0
  0
VERTEX
  5
C0
330
B9
100
AcDbEntity
  8
Capa 1
 62
    29
370
    20
100
AcDbVertex
100
AcDb2dVertex
 10
107.9345839824197
 20
-165.5836926524553
 30
0.0
  0
VERTEX
  5
C1
330
B9
100
AcDbEntity
  8
Capa 1
 62
    29
370
    20
100
AcDbVertex
100
AcDb2dVertex
 10
107.9345839824197
 20
-164.983686582866
 30
0.0
  0
VERTEX
  5
C2
330
B9
100
AcDbEntity
  8
Capa 1
 62
    29
370
    20
100
AcDbVertex
100
AcDb2dVertex
 10
108.7345793595487
 20
-164.983686582866
 30
0.0
  0
VERTEX
  5
C3
330
B9
100
AcDbEntity
  8
Capa 1
 62
    29
370
    20
100
AcDbVertex
100
AcDb2dVertex
 10
108.7345793595487
 20
-152.3336934016537
 30
0.0
  0
VERTEX
  5
C4
330
B9
100
AcDbEntity
  8
Capa 1
 62
    29
370
    20
100
AcDbVertex
100
AcDb2dVertex
 10
107.9345839824197
 20
-152.3336934016537
 30
0.0
  0
VERTEX
  5
C5
330
B9
100
AcDbEntity
  8
Capa 1
 62
    29
370
    20
100
AcDbVertex
100
AcDb2dVertex
 10
107.9345839824197
 20
-151.7336873320644
 30
0.0
  0
VERTEX
  5
C6
330
B9
100
AcDbEntity
  8
Capa 1
 62
    29
370
    20
100
AcDbVertex
100
AcDb2dVertex
 10
94.08457866202882
 20
-151.7336873320644
 30
0.0
  0
SEQEND
  5
C7
330
B9
100
AcDbEntity
  8
Capa 1
 62
    29
370
    20
  0
POLYLINE
  5
C8
330
1F
100
AcDbEntity
  8
Capa 1
 62
    29
370
    20
100
AcDb2dPolyline
 66
     1
 10
0.0
 20
0.0
 30
0.0
  0
VERTEX
  5
C9
330
C8
100
AcDbEntity
  8
Capa 1
 62
    29
370
    20
100
AcDbVertex
100
AcDb2dVertex
 10
36.93458513596944
 20
-139.8266903246613
 30
0.0
  0
VERTEX
  5
CA
330
C8
100
AcDbEntity
  8
Capa 1
 62
    29
370
    20
100
AcDbVertex
100
AcDb2dVertex
 10
36.93458513596944
 20
-140.4266925795536
 30
0.0
  0
VERTEX
  5
CB
330
C8
100
AcDbEntity
  8
Capa 1
 62
    29
370
    20
100
AcDbVertex
100
AcDb2dVertex
 10
36.13458499046928
 20
-140.4266925795536
 30
0.0
  0
VERTEX
  5
CC
330
C8
100
AcDbEntity
  8
Capa 1
 62
    29
370
    20
100
AcDbVertex
100
AcDb2dVertex
 10
36.13458499046928
 20
-153.0766895754626
 30
0.0
  0
VERTEX
  5
CD
330
C8
100
AcDbEntity
  8
Capa 1
 62
    29
370
    20
100
AcDbVertex
100
AcDb2dVertex
 10
36.93458513596944
 20
-153.0766895754626
 30
0.0
  0
VERTEX
  5
CE
330
C8
100
AcDbEntity
  8
Capa 1
 62
    29
370
    20
100
AcDbVertex
100
AcDb2dVertex
 10
36.93458513596944
 20
-153.6766880156584
 30
0.0
  0
VERTEX
  5
CF
330
C8
100
AcDbEntity
  8
Capa 1
 62
    29
370
    20
100
AcDbVertex
100
AcDb2dVertex
 10
50.78458378064075
 20
-153.6766880156584
 30
0.0
  0
VERTEX
  5
D0
330
C8
100
AcDbEntity
  8
Capa 1
 62
    29
370
    20
100
AcDbVertex
100
AcDb2dVertex
 10
50.78458378064075
 20
-153.0766895754626
 30
0.0
  0
VERTEX
  5
D1
330
C8
100
AcDbEntity
  8
Capa 1
 62
    29
370
    20
100
AcDbVertex
100
AcDb2dVertex
 10
51.58458487981508
 20
-153.0766895754626
 30
0.0
  0
VERTEX
  5
D2
330
C8
100
AcDbEntity
  8
Capa 1
 62
    29
370
    20
100
AcDbVertex
100
AcDb2dVertex
 10
51.58458487981508
 20
-140.4266925795536
 30
0.0
  0
VERTEX
  5
D3
330
C8
100
AcDbEntity
  8
Capa 1
 62
    29
370
    20
100
AcDbVertex
100
AcDb2dVertex
 10
50.78458378064075
 20
-140.4266925795536
 30
0.0
  0
VERTEX
  5
D4
330
C8
100
AcDbEntity
  8
Capa 1
 62
    29
370
    20
100
AcDbVertex
100
AcDb2dVertex
 10
50.78458378064075
 20
-139.8266903246613
 30
0.0
  0
VERTEX
  5
D5
330
C8
100
AcDbEntity
  8
Capa 1
 62
    29
370
    20
100
AcDbVertex
100
AcDb2dVertex
 10
36.93458513596944
 20
-139.8266903246613
 30
0.0
  0
SEQEND
  5
D6
330
C8
100
AcDbEntity
  8
Capa 1
 62
    29
370
    20
  0
POLYLINE
  5
D7
330
1F
100
AcDbEntity
  8
Capa 1
 62
    29
370
    20
100
AcDb2dPolyline
 66
     1
 10
0.0
 20
0.0
 30
0.0
  0
VERTEX
  5
D8
330
D7
100
AcDbEntity
  8
Capa 1
 62
    29
370
    20
100
AcDbVertex
100
AcDb2dVertex
 10
55.98458424955481
 20
-139.8266903246613
 30
0.0
  0
VERTEX
  5
D9
330
D7
100
AcDbEntity
  8
Capa 1
 62
    29
370
    20
100
AcDbVertex
100
AcDb2dVertex
 10
55.98458424955481
 20
-140.4266925795536
 30
0.0
  0
VERTEX
  5
DA
330
D7
100
AcDbEntity
  8
Capa 1
 62
    29
370
    20
100
AcDbVertex
100
AcDb2dVertex
 10
55.1845831503808
 20
-140.4266925795536
 30
0.0
  0
VERTEX
  5
DB
330
D7
100
AcDbEntity
  8
Capa 1
 62
    29
370
    20
100
AcDbVertex
100
AcDb2dVertex
 10
55.1845831503808
 20
-153.0766895754626
 30
0.0
  0
VERTEX
  5
DC
330
D7
100
AcDbEntity
  8
Capa 1
 62
    29
370
    20
100
AcDbVertex
100
AcDb2dVertex
 10
55.98458424955481
 20
-153.0766895754626
 30
0.0
  0
VERTEX
  5
DD
330
D7
100
AcDbEntity
  8
Capa 1
 62
    29
370
    20
100
AcDbVertex
100
AcDb2dVertex
 10
55.98458424955481
 20
-153.6766880156584
 30
0.0
  0
VERTEX
  5
DE
330
D7
100
AcDbEntity
  8
Capa 1
 62
    29
370
    20
100
AcDbVertex
100
AcDb2dVertex
 10
69.83458384789998
 20
-153.6766880156584
 30
0.0
  0
VERTEX
  5
DF
330
D7
100
AcDbEntity
  8
Capa 1
 62
    29
370
    20
100
AcDbVertex
100
AcDb2dVertex
 10
69.83458384789998
 20
-153.0766895754626
 30
0.0
  0
VERTEX
  5
E0
330
D7
100
AcDbEntity
  8
Capa 1
 62
    29
370
    20
100
AcDbVertex
100
AcDb2dVertex
 10
70.63458303972628
 20
-153.0766895754626
 30
0.0
  0
VERTEX
  5
E1
330
D7
100
AcDbEntity
  8
Capa 1
 62
    29
370
    20
100
AcDbVertex
100
AcDb2dVertex
 10
70.63458303972628
 20
-140.4266925795536
 30
0.0
  0
VERTEX
  5
E2
330
D7
100
AcDbEntity
  8
Capa 1
 62
    29
370
    20
100
AcDbVertex
100
AcDb2dVertex
 10
69.83458384789998
 20
-140.4266925795536
 30
0.0
  0
VERTEX
  5
E3
330
D7
100
AcDbEntity
  8
Capa 1
 62
    29
370
    20
100
AcDbVertex
100
AcDb2dVertex
 10
69.83458384789998
 20
-139.8266903246613
 30
0.0
  0
VERTEX
  5
E4
330
D7
100
AcDbEntity
  8
Capa 1
 62
    29
370
    20
100
AcDbVertex
100
AcDb2dVertex
 10
55.98458424955481
 20
-139.8266903246613
 30
0.0
  0
SEQEND
  5
E5
330
D7
100
AcDbEntity
  8
Capa 1
 62
    29
370
    20
  0
POLYLINE
  5
E6
330
1F
100
AcDbEntity
  8
Capa 1
 62
    29
370
    20
100
AcDb2dPolyline
 66
     1
 10
0.0
 20
0.0
 30
0.0
  0
VERTEX
  5
E7
330
E6
100
AcDbEntity
  8
Capa 1
 62
    29
370
    20
100
AcDbVertex
100
AcDb2dVertex
 10
132.1845826112453
 20
-137.4456899404923
 30
0.0
  0
VERTEX
  5
E8
330
E6
100
AcDbEntity
  8
Capa 1
 62
    29
370
    20
100
AcDbVertex
100
AcDb2dVertex
 10
132.1845826112453
 20
-138.0456921953843
 30
0.0
  0
VERTEX
  5
E9
330
E6
100
AcDbEntity
  8
Capa 1
 62
    29
370
    20
100
AcDbVertex
100
AcDb2dVertex
 10
131.3845796047223
 20
-138.0456921953843
 30
0.0
  0
VERTEX
  5
EA
330
E6
100
AcDbEntity
  8
Capa 1
 62
    29
370
    20
100
AcDbVertex
100
AcDb2dVertex
 10
131.3845796047223
 20
-150.6956891912936
 30
0.0
  0
VERTEX
  5
EB
330
E6
100
AcDbEntity
  8
Capa 1
 62
    29
370
    20
100
AcDbVertex
100
AcDb2dVertex
 10
132.1845826112453
 20
-150.6956891912936
 30
0.0
  0
VERTEX
  5
EC
330
E6
100
AcDbEntity
  8
Capa 1
 62
    29
370
    20
100
AcDbVertex
100
AcDb2dVertex
 10
132.1845826112453
 20
-151.2956914461862
 30
0.0
  0
VERTEX
  5
ED
330
E6
100
AcDbEntity
  8
Capa 1
 62
    29
370
    20
100
AcDbVertex
100
AcDb2dVertex
 10
146.0345803022421
 20
-151.2956914461862
 30
0.0
  0
VERTEX
  5
EE
330
E6
100
AcDbEntity
  8
Capa 1
 62
    29
370
    20
100
AcDbVertex
100
AcDb2dVertex
 10
146.0345803022421
 20
-150.6956891912936
 30
0.0
  0
VERTEX
  5
EF
330
E6
100
AcDbEntity
  8
Capa 1
 62
    29
370
    20
100
AcDbVertex
100
AcDb2dVertex
 10
146.834575679371
 20
-150.6956891912936
 30
0.0
  0
VERTEX
  5
F0
330
E6
100
AcDbEntity
  8
Capa 1
 62
    29
370
    20
100
AcDbVertex
100
AcDb2dVertex
 10
146.834575679371
 20
-138.0456921953843
 30
0.0
  0
VERTEX
  5
F1
330
E6
100
AcDbEntity
  8
Capa 1
 62
    29
370
    20
100
AcDbVertex
100
AcDb2dVertex
 10
146.0345803022421
 20
-138.0456921953843
 30
0.0
  0
VERTEX
  5
F2
330
E6
100
AcDbEntity
  8
Capa 1
 62
    29
370
    20
100
AcDbVertex
100
AcDb2dVertex
 10
146.0345803022421
 20
-137.4456899404923
 30
0.0
  0
VERTEX
  5
F3
330
E6
100
AcDbEntity
  8
Capa 1
 62
    29
370
    20
100
AcDbVertex
100
AcDb2dVertex
 10
132.1845826112453
 20
-137.4456899404923
 30
0.0
  0
SEQEND
  5
F4
330
E6
100
AcDbEntity
  8
Capa 1
 62
    29
370
    20
  0
POLYLINE
  5
F5
330
1F
100
AcDbEntity
  8
Capa 1
 62
    29
370
    20
100
AcDb2dPolyline
 66
     1
 10
0.0
 20
0.0
 30
0.0
  0
VERTEX
  5
F6
330
F5
100
AcDbEntity
  8
Capa 1
 62
    29
370
    20
100
AcDbVertex
100
AcDb2dVertex
 10
75.03458431681469
 20
-135.0646895563228
 30
0.0
  0
VERTEX
  5
F7
330
F5
100
AcDbEntity
  8
Capa 1
 62
    29
370
    20
100
AcDbVertex
100
AcDb2dVertex
 10
75.03458431681469
 20
-135.6646918112147
 30
0.0
  0
VERTEX
  5
F8
330
F5
100
AcDbEntity
  8
Capa 1
 62
    29
370
    20
100
AcDbVertex
100
AcDb2dVertex
 10
74.23458131029166
 20
-135.6646918112147
 30
0.0
  0
VERTEX
  5
F9
330
F5
100
AcDbEntity
  8
Capa 1
 62
    29
370
    20
100
AcDbVertex
100
AcDb2dVertex
 10
74.23458131029166
 20
-148.3146888071244
 30
0.0
  0
VERTEX
  5
FA
330
F5
100
AcDbEntity
  8
Capa 1
 62
    29
370
    20
100
AcDbVertex
100
AcDb2dVertex
 10
75.03458431681469
 20
-148.3146888071244
 30
0.0
  0
VERTEX
  5
FB
330
F5
100
AcDbEntity
  8
Capa 1
 62
    29
370
    20
100
AcDbVertex
100
AcDb2dVertex
 10
75.03458431681469
 20
-148.914691062016
 30
0.0
  0
VERTEX
  5
FC
330
F5
100
AcDbEntity
  8
Capa 1
 62
    29
370
    20
100
AcDbVertex
100
AcDb2dVertex
 10
88.8845820078115
 20
-148.914691062016
 30
0.0
  0
VERTEX
  5
FD
330
F5
100
AcDbEntity
  8
Capa 1
 62
    29
370
    20
100
AcDbVertex
100
AcDb2dVertex
 10
88.8845820078115
 20
-148.3146888071244
 30
0.0
  0
VERTEX
  5
FE
330
F5
100
AcDbEntity
  8
Capa 1
 62
    29
370
    20
100
AcDbVertex
100
AcDb2dVertex
 10
89.68458119963779
 20
-148.3146888071244
 30
0.0
  0
VERTEX
  5
FF
330
F5
100
AcDbEntity
  8
Capa 1
 62
    29
370
    20
100
AcDbVertex
100
AcDb2dVertex
 10
89.68458119963779
 20
-135.6646918112147
 30
0.0
  0
VERTEX
  5
100
330
F5
100
AcDbEntity
  8
Capa 1
 62
    29
370
    20
100
AcDbVertex
100
AcDb2dVertex
 10
88.8845820078115
 20
-135.6646918112147
 30
0.0
  0
VERTEX
  5
101
330
F5
100
AcDbEntity
  8
Capa 1
 62
    29
370
    20
100
AcDbVertex
100
AcDb2dVertex
 10
88.8845820078115
 20
-135.0646895563228
 30
0.0
  0
VERTEX
  5
102
330
F5
100
AcDbEntity
  8
Capa 1
 62
    29
370
    20
100
AcDbVertex
100
AcDb2dVertex
 10
75.03458431681469
 20
-135.0646895563228
 30
0.0
  0
SEQEND
  5
103
330
F5
100
AcDbEntity
  8
Capa 1
 62
    29
370
    20
  0
POLYLINE
  5
104
330
1F
100
AcDbEntity
  8
Capa 1
 62
    29
370
    20
100
AcDb2dPolyline
 66
     1
 10
0.0
 20
0.0
 30
0.0
  0
VERTEX
  5
105
330
104
100
AcDbEntity
  8
Capa 1
 62
    29
370
    20
100
AcDbVertex
100
AcDb2dVertex
 10
113.1345806366371
 20
-135.0646895563228
 30
0.0
  0
VERTEX
  5
106
330
104
100
AcDbEntity
  8
Capa 1
 62
    29
370
    20
100
AcDbVertex
100
AcDb2dVertex
 10
113.1345806366371
 20
-135.6646918112147
 30
0.0
  0
VERTEX
  5
107
330
104
100
AcDbEntity
  8
Capa 1
 62
    29
370
    20
100
AcDbVertex
100
AcDb2dVertex
 10
112.334577630114
 20
-135.6646918112147
 30
0.0
  0
VERTEX
  5
108
330
104
100
AcDbEntity
  8
Capa 1
 62
    29
370
    20
100
AcDbVertex
100
AcDb2dVertex
 10
112.334577630114
 20
-148.3146888071244
 30
0.0
  0
VERTEX
  5
109
330
104
100
AcDbEntity
  8
Capa 1
 62
    29
370
    20
100
AcDbVertex
100
AcDb2dVertex
 10
113.1345806366371
 20
-148.3146888071244
 30
0.0
  0
VERTEX
  5
10A
330
104
100
AcDbEntity
  8
Capa 1
 62
    29
370
    20
100
AcDbVertex
100
AcDb2dVertex
 10
113.1345806366371
 20
-148.914691062016
 30
0.0
  0
VERTEX
  5
10B
330
104
100
AcDbEntity
  8
Capa 1
 62
    29
370
    20
100
AcDbVertex
100
AcDb2dVertex
 10
126.9845783276339
 20
-148.914691062016
 30
0.0
  0
VERTEX
  5
10C
330
104
100
AcDbEntity
  8
Capa 1
 62
    29
370
    20
100
AcDbVertex
100
AcDb2dVertex
 10
126.9845783276339
 20
-148.3146888071244
 30
0.0
  0
VERTEX
  5
10D
330
104
100
AcDbEntity
  8
Capa 1
 62
    29
370
    20
100
AcDbVertex
100
AcDb2dVertex
 10
127.7845813341569
 20
-148.3146888071244
 30
0.0
  0
VERTEX
  5
10E
330
104
100
AcDbEntity
  8
Capa 1
 62
    29
370
    20
100
AcDbVertex
100
AcDb2dVertex
 10
127.7845813341569
 20
-135.6646918112147
 30
0.0
  0
VERTEX
  5
10F
330
104
100
AcDbEntity
  8
Capa 1
 62
    29
370
    20
100
AcDbVertex
100
AcDb2dVertex
 10
126.9845783276339
 20
-135.6646918112147
 30
0.0
  0
VERTEX
  5
110
330
104
100
AcDbEntity
  8
Capa 1
 62
    29
370
    20
100
AcDbVertex
100
AcDb2dVertex
 10
126.9845783276339
 20
-135.0646895563228
 30
0.0
  0
VERTEX
  5
111
330
104
100
AcDbEntity
  8
Capa 1
 62
    29
370
    20
100
AcDbVertex
100
AcDb2dVertex
 10
113.1345806366371
 20
-135.0646895563228
 30
0.0
  0
SEQEND
  5
112
330
104
100
AcDbEntity
  8
Capa 1
 62
    29
370
    20
  0
POLYLINE
  5
113
330
1F
100
AcDbEntity
  8
Capa 1
 62
    29
370
    20
100
AcDb2dPolyline
 66
     1
 10
0.0
 20
0.0
 30
0.0
  0
VERTEX
  5
114
330
113
100
AcDbEntity
  8
Capa 1
 62
    29
370
    20
100
AcDbVertex
100
AcDb2dVertex
 10
94.08457866202882
 20
-132.6836929868506
 30
0.0
  0
VERTEX
  5
115
330
113
100
AcDbEntity
  8
Capa 1
 62
    29
370
    20
100
AcDbVertex
100
AcDb2dVertex
 10
94.08457866202882
 20
-133.2836914270458
 30
0.0
  0
VERTEX
  5
116
330
113
100
AcDbEntity
  8
Capa 1
 62
    29
370
    20
100
AcDbVertex
100
AcDb2dVertex
 10
93.28458328489991
 20
-133.2836914270458
 30
0.0
  0
VERTEX
  5
117
330
113
100
AcDbEntity
  8
Capa 1
 62
    29
370
    20
100
AcDbVertex
100
AcDb2dVertex
 10
93.28458328489991
 20
-145.9336922376522
 30
0.0
  0
VERTEX
  5
118
330
113
100
AcDbEntity
  8
Capa 1
 62
    29
370
    20
100
AcDbVertex
100
AcDb2dVertex
 10
94.08457866202882
 20
-145.9336922376522
 30
0.0
  0
VERTEX
  5
119
330
113
100
AcDbEntity
  8
Capa 1
 62
    29
370
    20
100
AcDbVertex
100
AcDb2dVertex
 10
94.08457866202882
 20
-146.5336906778474
 30
0.0
  0
VERTEX
  5
11A
330
113
100
AcDbEntity
  8
Capa 1
 62
    29
370
    20
100
AcDbVertex
100
AcDb2dVertex
 10
107.9345839824197
 20
-146.5336906778474
 30
0.0
  0
VERTEX
  5
11B
330
113
100
AcDbEntity
  8
Capa 1
 62
    29
370
    20
100
AcDbVertex
100
AcDb2dVertex
 10
107.9345839824197
 20
-145.9336922376522
 30
0.0
  0
VERTEX
  5
11C
330
113
100
AcDbEntity
  8
Capa 1
 62
    29
370
    20
100
AcDbVertex
100
AcDb2dVertex
 10
108.7345793595487
 20
-145.9336922376522
 30
0.0
  0
VERTEX
  5
11D
330
113
100
AcDbEntity
  8
Capa 1
 62
    29
370
    20
100
AcDbVertex
100
AcDb2dVertex
 10
108.7345793595487
 20
-133.2836914270458
 30
0.0
  0
VERTEX
  5
11E
330
113
100
AcDbEntity
  8
Capa 1
 62
    29
370
    20
100
AcDbVertex
100
AcDb2dVertex
 10
107.9345839824197
 20
-133.2836914270458
 30
0.0
  0
VERTEX
  5
11F
330
113
100
AcDbEntity
  8
Capa 1
 62
    29
370
    20
100
AcDbVertex
100
AcDb2dVertex
 10
107.9345839824197
 20
-132.6836929868506
 30
0.0
  0
VERTEX
  5
120
330
113
100
AcDbEntity
  8
Capa 1
 62
    29
370
    20
100
AcDbVertex
100
AcDb2dVertex
 10
94.08457866202882
 20
-132.6836929868506
 30
0.0
  0
SEQEND
  5
121
330
113
100
AcDbEntity
  8
Capa 1
 62
    29
370
    20
  0
POLYLINE
  5
122
330
1F
100
AcDbEntity
  8
Capa 1
 62
    29
370
    20
100
AcDb2dPolyline
 66
     1
 10
0.0
 20
0.0
 30
0.0
  0
VERTEX
  5
123
330
122
100
AcDbEntity
  8
Capa 1
 62
    29
370
    20
100
AcDbVertex
100
AcDb2dVertex
 10
36.93458513596944
 20
-120.7766921647498
 30
0.0
  0
VERTEX
  5
124
330
122
100
AcDbEntity
  8
Capa 1
 62
    29
370
    20
100
AcDbVertex
100
AcDb2dVertex
 10
36.93458513596944
 20
-121.3766906049456
 30
0.0
  0
VERTEX
  5
125
330
122
100
AcDbEntity
  8
Capa 1
 62
    29
370
    20
100
AcDbVertex
100
AcDb2dVertex
 10
36.13458499046928
 20
-121.3766906049456
 30
0.0
  0
VERTEX
  5
126
330
122
100
AcDbEntity
  8
Capa 1
 62
    29
370
    20
100
AcDbVertex
100
AcDb2dVertex
 10
36.13458499046928
 20
-134.0266914155514
 30
0.0
  0
VERTEX
  5
127
330
122
100
AcDbEntity
  8
Capa 1
 62
    29
370
    20
100
AcDbVertex
100
AcDb2dVertex
 10
36.93458513596944
 20
-134.0266914155514
 30
0.0
  0
VERTEX
  5
128
330
122
100
AcDbEntity
  8
Capa 1
 62
    29
370
    20
100
AcDbVertex
100
AcDb2dVertex
 10
36.93458513596944
 20
-134.6266898557472
 30
0.0
  0
VERTEX
  5
129
330
122
100
AcDbEntity
  8
Capa 1
 62
    29
370
    20
100
AcDbVertex
100
AcDb2dVertex
 10
50.78458378064075
 20
-134.6266898557472
 30
0.0
  0
VERTEX
  5
12A
330
122
100
AcDbEntity
  8
Capa 1
 62
    29
370
    20
100
AcDbVertex
100
AcDb2dVertex
 10
50.78458378064075
 20
-134.0266914155514
 30
0.0
  0
VERTEX
  5
12B
330
122
100
AcDbEntity
  8
Capa 1
 62
    29
370
    20
100
AcDbVertex
100
AcDb2dVertex
 10
51.58458487981508
 20
-134.0266914155514
 30
0.0
  0
VERTEX
  5
12C
330
122
100
AcDbEntity
  8
Capa 1
 62
    29
370
    20
100
AcDbVertex
100
AcDb2dVertex
 10
51.58458487981508
 20
-121.3766906049456
 30
0.0
  0
VERTEX
  5
12D
330
122
100
AcDbEntity
  8
Capa 1
 62
    29
370
    20
100
AcDbVertex
100
AcDb2dVertex
 10
50.78458378064075
 20
-121.3766906049456
 30
0.0
  0
VERTEX
  5
12E
330
122
100
AcDbEntity
  8
Capa 1
 62
    29
370
    20
100
AcDbVertex
100
AcDb2dVertex
 10
50.78458378064075
 20
-120.7766921647498
 30
0.0
  0
VERTEX
  5
12F
330
122
100
AcDbEntity
  8
Capa 1
 62
    29
370
    20
100
AcDbVertex
100
AcDb2dVertex
 10
36.93458513596944
 20
-120.7766921647498
 30
0.0
  0
SEQEND
  5
130
330
122
100
AcDbEntity
  8
Capa 1
 62
    29
370
    20
  0
POLYLINE
  5
131
330
1F
100
AcDbEntity
  8
Capa 1
 62
    29
370
    20
100
AcDb2dPolyline
 66
     1
 10
0.0
 20
0.0
 30
0.0
  0
VERTEX
  5
132
330
131
100
AcDbEntity
  8
Capa 1
 62
    29
370
    20
100
AcDbVertex
100
AcDb2dVertex
 10
55.98458424955481
 20
-120.7766921647498
 30
0.0
  0
VERTEX
  5
133
330
131
100
AcDbEntity
  8
Capa 1
 62
    29
370
    20
100
AcDbVertex
100
AcDb2dVertex
 10
55.98458424955481
 20
-121.3766906049456
 30
0.0
  0
VERTEX
  5
134
330
131
100
AcDbEntity
  8
Capa 1
 62
    29
370
    20
100
AcDbVertex
100
AcDb2dVertex
 10
55.1845831503808
 20
-121.3766906049456
 30
0.0
  0
VERTEX
  5
135
330
131
100
AcDbEntity
  8
Capa 1
 62
    29
370
    20
100
AcDbVertex
100
AcDb2dVertex
 10
55.1845831503808
 20
-134.0266914155514
 30
0.0
  0
VERTEX
  5
136
330
131
100
AcDbEntity
  8
Capa 1
 62
    29
370
    20
100
AcDbVertex
100
AcDb2dVertex
 10
55.98458424955481
 20
-134.0266914155514
 30
0.0
  0
VERTEX
  5
137
330
131
100
AcDbEntity
  8
Capa 1
 62
    29
370
    20
100
AcDbVertex
100
AcDb2dVertex
 10
55.98458424955481
 20
-134.6266898557472
 30
0.0
  0
VERTEX
  5
138
330
131
100
AcDbEntity
  8
Capa 1
 62
    29
370
    20
100
AcDbVertex
100
AcDb2dVertex
 10
69.83458384789998
 20
-134.6266898557472
 30
0.0
  0
VERTEX
  5
139
330
131
100
AcDbEntity
  8
Capa 1
 62
    29
370
    20
100
AcDbVertex
100
AcDb2dVertex
 10
69.83458384789998
 20
-134.0266914155514
 30
0.0
  0
VERTEX
  5
13A
330
131
100
AcDbEntity
  8
Capa 1
 62
    29
370
    20
100
AcDbVertex
100
AcDb2dVertex
 10
70.63458303972628
 20
-134.0266914155514
 30
0.0
  0
VERTEX
  5
13B
330
131
100
AcDbEntity
  8
Capa 1
 62
    29
370
    20
100
AcDbVertex
100
AcDb2dVertex
 10
70.63458303972628
 20
-121.3766906049456
 30
0.0
  0
VERTEX
  5
13C
330
131
100
AcDbEntity
  8
Capa 1
 62
    29
370
    20
100
AcDbVertex
100
AcDb2dVertex
 10
69.83458384789998
 20
-121.3766906049456
 30
0.0
  0
VERTEX
  5
13D
330
131
100
AcDbEntity
  8
Capa 1
 62
    29
370
    20
100
AcDbVertex
100
AcDb2dVertex
 10
69.83458384789998
 20
-120.7766921647498
 30
0.0
  0
VERTEX
  5
13E
330
131
100
AcDbEntity
  8
Capa 1
 62
    29
370
    20
100
AcDbVertex
100
AcDb2dVertex
 10
55.98458424955481
 20
-120.7766921647498
 30
0.0
  0
SEQEND
  5
13F
330
131
100
AcDbEntity
  8
Capa 1
 62
    29
370
    20
  0
POLYLINE
  5
140
330
1F
100
AcDbEntity
  8
Capa 1
 62
    29
370
    20
100
AcDb2dPolyline
 66
     1
 10
0.0
 20
0.0
 30
0.0
  0
VERTEX
  5
141
330
140
100
AcDbEntity
  8
Capa 1
 62
    29
370
    20
100
AcDbVertex
100
AcDb2dVertex
 10
132.1845826112453
 20
-118.3956917805808
 30
0.0
  0
VERTEX
  5
142
330
140
100
AcDbEntity
  8
Capa 1
 62
    29
370
    20
100
AcDbVertex
100
AcDb2dVertex
 10
132.1845826112453
 20
-118.9956940354734
 30
0.0
  0
VERTEX
  5
143
330
140
100
AcDbEntity
  8
Capa 1
 62
    29
370
    20
100
AcDbVertex
100
AcDb2dVertex
 10
131.3845796047223
 20
-118.9956940354734
 30
0.0
  0
VERTEX
  5
144
330
140
100
AcDbEntity
  8
Capa 1
 62
    29
370
    20
100
AcDbVertex
100
AcDb2dVertex
 10
131.3845796047223
 20
-131.6456910313824
 30
0.0
  0
VERTEX
  5
145
330
140
100
AcDbEntity
  8
Capa 1
 62
    29
370
    20
100
AcDbVertex
100
AcDb2dVertex
 10
132.1845826112453
 20
-131.6456910313824
 30
0.0
  0
VERTEX
  5
146
330
140
100
AcDbEntity
  8
Capa 1
 62
    29
370
    20
100
AcDbVertex
100
AcDb2dVertex
 10
132.1845826112453
 20
-132.245693286275
 30
0.0
  0
VERTEX
  5
147
330
140
100
AcDbEntity
  8
Capa 1
 62
    29
370
    20
100
AcDbVertex
100
AcDb2dVertex
 10
146.0345803022421
 20
-132.245693286275
 30
0.0
  0
VERTEX
  5
148
330
140
100
AcDbEntity
  8
Capa 1
 62
    29
370
    20
100
AcDbVertex
100
AcDb2dVertex
 10
146.0345803022421
 20
-131.6456910313824
 30
0.0
  0
VERTEX
  5
149
330
140
100
AcDbEntity
  8
Capa 1
 62
    29
370
    20
100
AcDbVertex
100
AcDb2dVertex
 10
146.834575679371
 20
-131.6456910313824
 30
0.0
  0
VERTEX
  5
14A
330
140
100
AcDbEntity
  8
Capa 1
 62
    29
370
    20
100
AcDbVertex
100
AcDb2dVertex
 10
146.834575679371
 20
-118.9956940354734
 30
0.0
  0
VERTEX
  5
14B
330
140
100
AcDbEntity
  8
Capa 1
 62
    29
370
    20
100
AcDbVertex
100
AcDb2dVertex
 10
146.0345803022421
 20
-118.9956940354734
 30
0.0
  0
VERTEX
  5
14C
330
140
100
AcDbEntity
  8
Capa 1
 62
    29
370
    20
100
AcDbVertex
100
AcDb2dVertex
 10
146.0345803022421
 20
-118.3956917805808
 30
0.0
  0
VERTEX
  5
14D
330
140
100
AcDbEntity
  8
Capa 1
 62
    29
370
    20
100
AcDbVertex
100
AcDb2dVertex
 10
132.1845826112453
 20
-118.3956917805808
 30
0.0
  0
SEQEND
  5
14E
330
140
100
AcDbEntity
  8
Capa 1
 62
    29
370
    20
  0
POLYLINE
  5
14F
330
1F
100
AcDbEntity
  8
Capa 1
 62
    29
370
    20
100
AcDb2dPolyline
 66
     1
 10
0.0
 20
0.0
 30
0.0
  0
VERTEX
  5
150
330
14F
100
AcDbEntity
  8
Capa 1
 62
    29
370
    20
100
AcDbVertex
100
AcDb2dVertex
 10
75.03458431681469
 20
-116.0146933037603
 30
0.0
  0
VERTEX
  5
151
330
14F
100
AcDbEntity
  8
Capa 1
 62
    29
370
    20
100
AcDbVertex
100
AcDb2dVertex
 10
75.03458431681469
 20
-116.6146917439555
 30
0.0
  0
VERTEX
  5
152
330
14F
100
AcDbEntity
  8
Capa 1
 62
    29
370
    20
100
AcDbVertex
100
AcDb2dVertex
 10
74.23458131029166
 20
-116.6146917439555
 30
0.0
  0
VERTEX
  5
153
330
14F
100
AcDbEntity
  8
Capa 1
 62
    29
370
    20
100
AcDbVertex
100
AcDb2dVertex
 10
74.23458131029166
 20
-129.2646906472135
 30
0.0
  0
VERTEX
  5
154
330
14F
100
AcDbEntity
  8
Capa 1
 62
    29
370
    20
100
AcDbVertex
100
AcDb2dVertex
 10
75.03458431681469
 20
-129.2646906472135
 30
0.0
  0
VERTEX
  5
155
330
14F
100
AcDbEntity
  8
Capa 1
 62
    29
370
    20
100
AcDbVertex
100
AcDb2dVertex
 10
75.03458431681469
 20
-129.8646929021054
 30
0.0
  0
VERTEX
  5
156
330
14F
100
AcDbEntity
  8
Capa 1
 62
    29
370
    20
100
AcDbVertex
100
AcDb2dVertex
 10
88.8845820078115
 20
-129.8646929021054
 30
0.0
  0
VERTEX
  5
157
330
14F
100
AcDbEntity
  8
Capa 1
 62
    29
370
    20
100
AcDbVertex
100
AcDb2dVertex
 10
88.8845820078115
 20
-129.2646906472135
 30
0.0
  0
VERTEX
  5
158
330
14F
100
AcDbEntity
  8
Capa 1
 62
    29
370
    20
100
AcDbVertex
100
AcDb2dVertex
 10
89.68458119963779
 20
-129.2646906472135
 30
0.0
  0
VERTEX
  5
159
330
14F
100
AcDbEntity
  8
Capa 1
 62
    29
370
    20
100
AcDbVertex
100
AcDb2dVertex
 10
89.68458119963779
 20
-116.6146917439555
 30
0.0
  0
VERTEX
  5
15A
330
14F
100
AcDbEntity
  8
Capa 1
 62
    29
370
    20
100
AcDbVertex
100
AcDb2dVertex
 10
88.8845820078115
 20
-116.6146917439555
 30
0.0
  0
VERTEX
  5
15B
330
14F
100
AcDbEntity
  8
Capa 1
 62
    29
370
    20
100
AcDbVertex
100
AcDb2dVertex
 10
88.8845820078115
 20
-116.0146933037603
 30
0.0
  0
VERTEX
  5
15C
330
14F
100
AcDbEntity
  8
Capa 1
 62
    29
370
    20
100
AcDbVertex
100
AcDb2dVertex
 10
75.03458431681469
 20
-116.0146933037603
 30
0.0
  0
SEQEND
  5
15D
330
14F
100
AcDbEntity
  8
Capa 1
 62
    29
370
    20
  0
POLYLINE
  5
15E
330
1F
100
AcDbEntity
  8
Capa 1
 62
    29
370
    20
100
AcDb2dPolyline
 66
     1
 10
0.0
 20
0.0
 30
0.0
  0
VERTEX
  5
15F
330
15E
100
AcDbEntity
  8
Capa 1
 62
    29
370
    20
100
AcDbVertex
100
AcDb2dVertex
 10
113.1345806366371
 20
-116.0146933037603
 30
0.0
  0
VERTEX
  5
160
330
15E
100
AcDbEntity
  8
Capa 1
 62
    29
370
    20
100
AcDbVertex
100
AcDb2dVertex
 10
113.1345806366371
 20
-116.6146917439555
 30
0.0
  0
VERTEX
  5
161
330
15E
100
AcDbEntity
  8
Capa 1
 62
    29
370
    20
100
AcDbVertex
100
AcDb2dVertex
 10
112.334577630114
 20
-116.6146917439555
 30
0.0
  0
VERTEX
  5
162
330
15E
100
AcDbEntity
  8
Capa 1
 62
    29
370
    20
100
AcDbVertex
100
AcDb2dVertex
 10
112.334577630114
 20
-129.2646906472135
 30
0.0
  0
VERTEX
  5
163
330
15E
100
AcDbEntity
  8
Capa 1
 62
    29
370
    20
100
AcDbVertex
100
AcDb2dVertex
 10
113.1345806366371
 20
-129.2646906472135
 30
0.0
  0
VERTEX
  5
164
330
15E
100
AcDbEntity
  8
Capa 1
 62
    29
370
    20
100
AcDbVertex
100
AcDb2dVertex
 10
113.1345806366371
 20
-129.8646929021054
 30
0.0
  0
VERTEX
  5
165
330
15E
100
AcDbEntity
  8
Capa 1
 62
    29
370
    20
100
AcDbVertex
100
AcDb2dVertex
 10
126.9845783276339
 20
-129.8646929021054
 30
0.0
  0
VERTEX
  5
166
330
15E
100
AcDbEntity
  8
Capa 1
 62
    29
370
    20
100
AcDbVertex
100
AcDb2dVertex
 10
126.9845783276339
 20
-129.2646906472135
 30
0.0
  0
VERTEX
  5
167
330
15E
100
AcDbEntity
  8
Capa 1
 62
    29
370
    20
100
AcDbVertex
100
AcDb2dVertex
 10
127.7845813341569
 20
-129.2646906472135
 30
0.0
  0
VERTEX
  5
168
330
15E
100
AcDbEntity
  8
Capa 1
 62
    29
370
    20
100
AcDbVertex
100
AcDb2dVertex
 10
127.7845813341569
 20
-116.6146917439555
 30
0.0
  0
VERTEX
  5
169
330
15E
100
AcDbEntity
  8
Capa 1
 62
    29
370
    20
100
AcDbVertex
100
AcDb2dVertex
 10
126.9845783276339
 20
-116.6146917439555
 30
0.0
  0
VERTEX
  5
16A
330
15E
100
AcDbEntity
  8
Capa 1
 62
    29
370
    20
100
AcDbVertex
100
AcDb2dVertex
 10
126.9845783276339
 20
-116.0146933037603
 30
0.0
  0
VERTEX
  5
16B
330
15E
100
AcDbEntity
  8
Capa 1
 62
    29
370
    20
100
AcDbVertex
100
AcDb2dVertex
 10
113.1345806366371
 20
-116.0146933037603
 30
0.0
  0
SEQEND
  5
16C
330
15E
100
AcDbEntity
  8
Capa 1
 62
    29
370
    20
  0
POLYLINE
  5
16D
330
1F
100
AcDbEntity
  8
Capa 1
 62
    29
370
    20
100
AcDb2dPolyline
 66
     1
 10
0.0
 20
0.0
 30
0.0
  0
VERTEX
  5
16E
330
16D
100
AcDbEntity
  8
Capa 1
 62
    29
370
    20
100
AcDbVertex
100
AcDb2dVertex
 10
94.08457866202882
 20
-113.6336929195907
 30
0.0
  0
VERTEX
  5
16F
330
16D
100
AcDbEntity
  8
Capa 1
 62
    29
370
    20
100
AcDbVertex
100
AcDb2dVertex
 10
94.08457866202882
 20
-114.2336932671343
 30
0.0
  0
VERTEX
  5
170
330
16D
100
AcDbEntity
  8
Capa 1
 62
    29
370
    20
100
AcDbVertex
100
AcDb2dVertex
 10
93.28458328489991
 20
-114.2336932671343
 30
0.0
  0
VERTEX
  5
171
330
16D
100
AcDbEntity
  8
Capa 1
 62
    29
370
    20
100
AcDbVertex
100
AcDb2dVertex
 10
93.28458328489991
 20
-126.8836902630439
 30
0.0
  0
VERTEX
  5
172
330
16D
100
AcDbEntity
  8
Capa 1
 62
    29
370
    20
100
AcDbVertex
100
AcDb2dVertex
 10
94.08457866202882
 20
-126.8836902630439
 30
0.0
  0
VERTEX
  5
173
330
16D
100
AcDbEntity
  8
Capa 1
 62
    29
370
    20
100
AcDbVertex
100
AcDb2dVertex
 10
94.08457866202882
 20
-127.4836925179359
 30
0.0
  0
VERTEX
  5
174
330
16D
100
AcDbEntity
  8
Capa 1
 62
    29
370
    20
100
AcDbVertex
100
AcDb2dVertex
 10
107.9345839824197
 20
-127.4836925179359
 30
0.0
  0
VERTEX
  5
175
330
16D
100
AcDbEntity
  8
Capa 1
 62
    29
370
    20
100
AcDbVertex
100
AcDb2dVertex
 10
107.9345839824197
 20
-126.8836902630439
 30
0.0
  0
VERTEX
  5
176
330
16D
100
AcDbEntity
  8
Capa 1
 62
    29
370
    20
100
AcDbVertex
100
AcDb2dVertex
 10
108.7345793595487
 20
-126.8836902630439
 30
0.0
  0
VERTEX
  5
177
330
16D
100
AcDbEntity
  8
Capa 1
 62
    29
370
    20
100
AcDbVertex
100
AcDb2dVertex
 10
108.7345793595487
 20
-114.2336932671343
 30
0.0
  0
VERTEX
  5
178
330
16D
100
AcDbEntity
  8
Capa 1
 62
    29
370
    20
100
AcDbVertex
100
AcDb2dVertex
 10
107.9345839824197
 20
-114.2336932671343
 30
0.0
  0
VERTEX
  5
179
330
16D
100
AcDbEntity
  8
Capa 1
 62
    29
370
    20
100
AcDbVertex
100
AcDb2dVertex
 10
107.9345839824197
 20
-113.6336929195907
 30
0.0
  0
VERTEX
  5
17A
330
16D
100
AcDbEntity
  8
Capa 1
 62
    29
370
    20
100
AcDbVertex
100
AcDb2dVertex
 10
94.08457866202882
 20
-113.6336929195907
 30
0.0
  0
SEQEND
  5
17B
330
16D
100
AcDbEntity
  8
Capa 1
 62
    29
370
    20
  0
POLYLINE
  5
17C
330
1F
100
AcDbEntity
  8
Capa 1
 62
    29
370
    20
100
AcDb2dPolyline
 66
     1
 10
0.0
 20
0.0
 30
0.0
  0
VERTEX
  5
17D
330
17C
100
AcDbEntity
  8
Capa 1
 62
    29
370
    20
100
AcDbVertex
100
AcDb2dVertex
 10
36.93458513596944
 20
-101.7266930511647
 30
0.0
  0
VERTEX
  5
17E
330
17C
100
AcDbEntity
  8
Capa 1
 62
    29
370
    20
100
AcDbVertex
100
AcDb2dVertex
 10
36.93458513596944
 20
-102.3266933987083
 30
0.0
  0
VERTEX
  5
17F
330
17C
100
AcDbEntity
  8
Capa 1
 62
    29
370
    20
100
AcDbVertex
100
AcDb2dVertex
 10
36.13458499046928
 20
-102.3266933987083
 30
0.0
  0
VERTEX
  5
180
330
17C
100
AcDbEntity
  8
Capa 1
 62
    29
370
    20
100
AcDbVertex
100
AcDb2dVertex
 10
36.13458499046928
 20
-114.9766932556405
 30
0.0
  0
VERTEX
  5
181
330
17C
100
AcDbEntity
  8
Capa 1
 62
    29
370
    20
100
AcDbVertex
100
AcDb2dVertex
 10
36.93458513596944
 20
-114.9766932556405
 30
0.0
  0
VERTEX
  5
182
330
17C
100
AcDbEntity
  8
Capa 1
 62
    29
370
    20
100
AcDbVertex
100
AcDb2dVertex
 10
36.93458513596944
 20
-115.5766916958357
 30
0.0
  0
VERTEX
  5
183
330
17C
100
AcDbEntity
  8
Capa 1
 62
    29
370
    20
100
AcDbVertex
100
AcDb2dVertex
 10
50.78458378064075
 20
-115.5766916958357
 30
0.0
  0
VERTEX
  5
184
330
17C
100
AcDbEntity
  8
Capa 1
 62
    29
370
    20
100
AcDbVertex
100
AcDb2dVertex
 10
50.78458378064075
 20
-114.9766932556405
 30
0.0
  0
VERTEX
  5
185
330
17C
100
AcDbEntity
  8
Capa 1
 62
    29
370
    20
100
AcDbVertex
100
AcDb2dVertex
 10
51.58458487981508
 20
-114.9766932556405
 30
0.0
  0
VERTEX
  5
186
330
17C
100
AcDbEntity
  8
Capa 1
 62
    29
370
    20
100
AcDbVertex
100
AcDb2dVertex
 10
51.58458487981508
 20
-102.3266933987083
 30
0.0
  0
VERTEX
  5
187
330
17C
100
AcDbEntity
  8
Capa 1
 62
    29
370
    20
100
AcDbVertex
100
AcDb2dVertex
 10
50.78458378064075
 20
-102.3266933987083
 30
0.0
  0
VERTEX
  5
188
330
17C
100
AcDbEntity
  8
Capa 1
 62
    29
370
    20
100
AcDbVertex
100
AcDb2dVertex
 10
50.78458378064075
 20
-101.7266930511647
 30
0.0
  0
VERTEX
  5
189
330
17C
100
AcDbEntity
  8
Capa 1
 62
    29
370
    20
100
AcDbVertex
100
AcDb2dVertex
 10
36.93458513596944
 20
-101.7266930511647
 30
0.0
  0
SEQEND
  5
18A
330
17C
100
AcDbEntity
  8
Capa 1
 62
    29
370
    20
  0
POLYLINE
  5
18B
330
1F
100
AcDbEntity
  8
Capa 1
 62
    29
370
    20
100
AcDb2dPolyline
 66
     1
 10
0.0
 20
0.0
 30
0.0
  0
VERTEX
  5
18C
330
18B
100
AcDbEntity
  8
Capa 1
 62
    29
370
    20
100
AcDbVertex
100
AcDb2dVertex
 10
55.98458424955481
 20
-101.7266930511647
 30
0.0
  0
VERTEX
  5
18D
330
18B
100
AcDbEntity
  8
Capa 1
 62
    29
370
    20
100
AcDbVertex
100
AcDb2dVertex
 10
55.98458424955481
 20
-102.3266933987083
 30
0.0
  0
VERTEX
  5
18E
330
18B
100
AcDbEntity
  8
Capa 1
 62
    29
370
    20
100
AcDbVertex
100
AcDb2dVertex
 10
55.1845831503808
 20
-102.3266933987083
 30
0.0
  0
VERTEX
  5
18F
330
18B
100
AcDbEntity
  8
Capa 1
 62
    29
370
    20
100
AcDbVertex
100
AcDb2dVertex
 10
55.1845831503808
 20
-114.9766932556405
 30
0.0
  0
VERTEX
  5
190
330
18B
100
AcDbEntity
  8
Capa 1
 62
    29
370
    20
100
AcDbVertex
100
AcDb2dVertex
 10
55.98458424955481
 20
-114.9766932556405
 30
0.0
  0
VERTEX
  5
191
330
18B
100
AcDbEntity
  8
Capa 1
 62
    29
370
    20
100
AcDbVertex
100
AcDb2dVertex
 10
55.98458424955481
 20
-115.5766916958357
 30
0.0
  0
VERTEX
  5
192
330
18B
100
AcDbEntity
  8
Capa 1
 62
    29
370
    20
100
AcDbVertex
100
AcDb2dVertex
 10
69.83458384789998
 20
-115.5766916958357
 30
0.0
  0
VERTEX
  5
193
330
18B
100
AcDbEntity
  8
Capa 1
 62
    29
370
    20
100
AcDbVertex
100
AcDb2dVertex
 10
69.83458384789998
 20
-114.9766932556405
 30
0.0
  0
VERTEX
  5
194
330
18B
100
AcDbEntity
  8
Capa 1
 62
    29
370
    20
100
AcDbVertex
100
AcDb2dVertex
 10
70.63458303972628
 20
-114.9766932556405
 30
0.0
  0
VERTEX
  5
195
330
18B
100
AcDbEntity
  8
Capa 1
 62
    29
370
    20
100
AcDbVertex
100
AcDb2dVertex
 10
70.63458303972628
 20
-102.3266933987083
 30
0.0
  0
VERTEX
  5
196
330
18B
100
AcDbEntity
  8
Capa 1
 62
    29
370
    20
100
AcDbVertex
100
AcDb2dVertex
 10
69.83458384789998
 20
-102.3266933987083
 30
0.0
  0
VERTEX
  5
197
330
18B
100
AcDbEntity
  8
Capa 1
 62
    29
370
    20
100
AcDbVertex
100
AcDb2dVertex
 10
69.83458384789998
 20
-101.7266930511647
 30
0.0
  0
VERTEX
  5
198
330
18B
100
AcDbEntity
  8
Capa 1
 62
    29
370
    20
100
AcDbVertex
100
AcDb2dVertex
 10
55.98458424955481
 20
-101.7266930511647
 30
0.0
  0
SEQEND
  5
199
330
18B
100
AcDbEntity
  8
Capa 1
 62
    29
370
    20
  0
POLYLINE
  5
19A
330
1F
100
AcDbEntity
  8
Capa 1
 62
    29
370
    20
100
AcDb2dPolyline
 66
     1
 10
0.0
 20
0.0
 30
0.0
  0
VERTEX
  5
19B
330
19A
100
AcDbEntity
  8
Capa 1
 62
    29
370
    20
100
AcDbVertex
100
AcDb2dVertex
 10
132.1845826112453
 20
-99.34569362066965
 30
0.0
  0
VERTEX
  5
19C
330
19A
100
AcDbEntity
  8
Capa 1
 62
    29
370
    20
100
AcDbVertex
100
AcDb2dVertex
 10
132.1845826112453
 20
-99.94569301453905
 30
0.0
  0
VERTEX
  5
19D
330
19A
100
AcDbEntity
  8
Capa 1
 62
    29
370
    20
100
AcDbVertex
100
AcDb2dVertex
 10
131.3845796047223
 20
-99.94569301453905
 30
0.0
  0
VERTEX
  5
19E
330
19A
100
AcDbEntity
  8
Capa 1
 62
    29
370
    20
100
AcDbVertex
100
AcDb2dVertex
 10
131.3845796047223
 20
-112.5956928714709
 30
0.0
  0
VERTEX
  5
19F
330
19A
100
AcDbEntity
  8
Capa 1
 62
    29
370
    20
100
AcDbVertex
100
AcDb2dVertex
 10
132.1845826112453
 20
-112.5956928714709
 30
0.0
  0
VERTEX
  5
1A0
330
19A
100
AcDbEntity
  8
Capa 1
 62
    29
370
    20
100
AcDbVertex
100
AcDb2dVertex
 10
132.1845826112453
 20
-113.1956932190151
 30
0.0
  0
VERTEX
  5
1A1
330
19A
100
AcDbEntity
  8
Capa 1
 62
    29
370
    20
100
AcDbVertex
100
AcDb2dVertex
 10
146.0345803022421
 20
-113.1956932190151
 30
0.0
  0
VERTEX
  5
1A2
330
19A
100
AcDbEntity
  8
Capa 1
 62
    29
370
    20
100
AcDbVertex
100
AcDb2dVertex
 10
146.0345803022421
 20
-112.5956928714709
 30
0.0
  0
VERTEX
  5
1A3
330
19A
100
AcDbEntity
  8
Capa 1
 62
    29
370
    20
100
AcDbVertex
100
AcDb2dVertex
 10
146.834575679371
 20
-112.5956928714709
 30
0.0
  0
VERTEX
  5
1A4
330
19A
100
AcDbEntity
  8
Capa 1
 62
    29
370
    20
100
AcDbVertex
100
AcDb2dVertex
 10
146.834575679371
 20
-99.94569301453905
 30
0.0
  0
VERTEX
  5
1A5
330
19A
100
AcDbEntity
  8
Capa 1
 62
    29
370
    20
100
AcDbVertex
100
AcDb2dVertex
 10
146.0345803022421
 20
-99.94569301453905
 30
0.0
  0
VERTEX
  5
1A6
330
19A
100
AcDbEntity
  8
Capa 1
 62
    29
370
    20
100
AcDbVertex
100
AcDb2dVertex
 10
146.0345803022421
 20
-99.34569362066965
 30
0.0
  0
VERTEX
  5
1A7
330
19A
100
AcDbEntity
  8
Capa 1
 62
    29
370
    20
100
AcDbVertex
100
AcDb2dVertex
 10
132.1845826112453
 20
-99.34569362066965
 30
0.0
  0
SEQEND
  5
1A8
330
19A
100
AcDbEntity
  8
Capa 1
 62
    29
370
    20
  0
POLYLINE
  5
1A9
330
1F
100
AcDbEntity
  8
Capa 1
 62
    29
370
    20
100
AcDb2dPolyline
 66
     1
 10
0.0
 20
0.0
 30
0.0
  0
VERTEX
  5
1AA
330
1A9
100
AcDbEntity
  8
Capa 1
 62
    29
370
    20
100
AcDbVertex
100
AcDb2dVertex
 10
75.03458431681469
 20
-96.96469323650038
 30
0.0
  0
VERTEX
  5
1AB
330
1A9
100
AcDbEntity
  8
Capa 1
 62
    29
370
    20
100
AcDbVertex
100
AcDb2dVertex
 10
75.03458431681469
 20
-97.56469358404397
 30
0.0
  0
VERTEX
  5
1AC
330
1A9
100
AcDbEntity
  8
Capa 1
 62
    29
370
    20
100
AcDbVertex
100
AcDb2dVertex
 10
74.23458131029166
 20
-97.56469358404397
 30
0.0
  0
VERTEX
  5
1AD
330
1A9
100
AcDbEntity
  8
Capa 1
 62
    29
370
    20
100
AcDbVertex
100
AcDb2dVertex
 10
74.23458131029166
 20
-110.214692487302
 30
0.0
  0
VERTEX
  5
1AE
330
1A9
100
AcDbEntity
  8
Capa 1
 62
    29
370
    20
100
AcDbVertex
100
AcDb2dVertex
 10
75.03458431681469
 20
-110.214692487302
 30
0.0
  0
VERTEX
  5
1AF
330
1A9
100
AcDbEntity
  8
Capa 1
 62
    29
370
    20
100
AcDbVertex
100
AcDb2dVertex
 10
75.03458431681469
 20
-110.8146928348456
 30
0.0
  0
VERTEX
  5
1B0
330
1A9
100
AcDbEntity
  8
Capa 1
 62
    29
370
    20
100
AcDbVertex
100
AcDb2dVertex
 10
88.8845820078115
 20
-110.8146928348456
 30
0.0
  0
VERTEX
  5
1B1
330
1A9
100
AcDbEntity
  8
Capa 1
 62
    29
370
    20
100
AcDbVertex
100
AcDb2dVertex
 10
88.8845820078115
 20
-110.214692487302
 30
0.0
  0
VERTEX
  5
1B2
330
1A9
100
AcDbEntity
  8
Capa 1
 62
    29
370
    20
100
AcDbVertex
100
AcDb2dVertex
 10
89.68458119963779
 20
-110.214692487302
 30
0.0
  0
VERTEX
  5
1B3
330
1A9
100
AcDbEntity
  8
Capa 1
 62
    29
370
    20
100
AcDbVertex
100
AcDb2dVertex
 10
89.68458119963779
 20
-97.56469358404397
 30
0.0
  0
VERTEX
  5
1B4
330
1A9
100
AcDbEntity
  8
Capa 1
 62
    29
370
    20
100
AcDbVertex
100
AcDb2dVertex
 10
88.8845820078115
 20
-97.56469358404397
 30
0.0
  0
VERTEX
  5
1B5
330
1A9
100
AcDbEntity
  8
Capa 1
 62
    29
370
    20
100
AcDbVertex
100
AcDb2dVertex
 10
88.8845820078115
 20
-96.96469323650038
 30
0.0
  0
VERTEX
  5
1B6
330
1A9
100
AcDbEntity
  8
Capa 1
 62
    29
370
    20
100
AcDbVertex
100
AcDb2dVertex
 10
75.03458431681469
 20
-96.96469323650038
 30
0.0
  0
SEQEND
  5
1B7
330
1A9
100
AcDbEntity
  8
Capa 1
 62
    29
370
    20
  0
POLYLINE
  5
1B8
330
1F
100
AcDbEntity
  8
Capa 1
 62
    29
370
    20
100
AcDb2dPolyline
 66
     1
 10
0.0
 20
0.0
 30
0.0
  0
VERTEX
  5
1B9
330
1B8
100
AcDbEntity
  8
Capa 1
 62
    29
370
    20
100
AcDbVertex
100
AcDb2dVertex
 10
113.1345806366371
 20
-96.96469323650038
 30
0.0
  0
VERTEX
  5
1BA
330
1B8
100
AcDbEntity
  8
Capa 1
 62
    29
370
    20
100
AcDbVertex
100
AcDb2dVertex
 10
113.1345806366371
 20
-97.56469358404397
 30
0.0
  0
VERTEX
  5
1BB
330
1B8
100
AcDbEntity
  8
Capa 1
 62
    29
370
    20
100
AcDbVertex
100
AcDb2dVertex
 10
112.334577630114
 20
-97.56469358404397
 30
0.0
  0
VERTEX
  5
1BC
330
1B8
100
AcDbEntity
  8
Capa 1
 62
    29
370
    20
100
AcDbVertex
100
AcDb2dVertex
 10
112.334577630114
 20
-110.214692487302
 30
0.0
  0
VERTEX
  5
1BD
330
1B8
100
AcDbEntity
  8
Capa 1
 62
    29
370
    20
100
AcDbVertex
100
AcDb2dVertex
 10
113.1345806366371
 20
-110.214692487302
 30
0.0
  0
VERTEX
  5
1BE
330
1B8
100
AcDbEntity
  8
Capa 1
 62
    29
370
    20
100
AcDbVertex
100
AcDb2dVertex
 10
113.1345806366371
 20
-110.8146928348456
 30
0.0
  0
VERTEX
  5
1BF
330
1B8
100
AcDbEntity
  8
Capa 1
 62
    29
370
    20
100
AcDbVertex
100
AcDb2dVertex
 10
126.9845783276339
 20
-110.8146928348456
 30
0.0
  0
VERTEX
  5
1C0
330
1B8
100
AcDbEntity
  8
Capa 1
 62
    29
370
    20
100
AcDbVertex
100
AcDb2dVertex
 10
126.9845783276339
 20
-110.214692487302
 30
0.0
  0
VERTEX
  5
1C1
330
1B8
100
AcDbEntity
  8
Capa 1
 62
    29
370
    20
100
AcDbVertex
100
AcDb2dVertex
 10
127.7845813341569
 20
-110.214692487302
 30
0.0
  0
VERTEX
  5
1C2
330
1B8
100
AcDbEntity
  8
Capa 1
 62
    29
370
    20
100
AcDbVertex
100
AcDb2dVertex
 10
127.7845813341569
 20
-97.56469358404397
 30
0.0
  0
VERTEX
  5
1C3
330
1B8
100
AcDbEntity
  8
Capa 1
 62
    29
370
    20
100
AcDbVertex
100
AcDb2dVertex
 10
126.9845783276339
 20
-97.56469358404397
 30
0.0
  0
VERTEX
  5
1C4
330
1B8
100
AcDbEntity
  8
Capa 1
 62
    29
370
    20
100
AcDbVertex
100
AcDb2dVertex
 10
126.9845783276339
 20
-96.96469323650038
 30
0.0
  0
VERTEX
  5
1C5
330
1B8
100
AcDbEntity
  8
Capa 1
 62
    29
370
    20
100
AcDbVertex
100
AcDb2dVertex
 10
113.1345806366371
 20
-96.96469323650038
 30
0.0
  0
SEQEND
  5
1C6
330
1B8
100
AcDbEntity
  8
Capa 1
 62
    29
370
    20
  0
POLYLINE
  5
1C7
330
1F
100
AcDbEntity
  8
Capa 1
 62
    29
370
    20
100
AcDb2dPolyline
 66
     1
 10
0.0
 20
0.0
 30
0.0
  0
VERTEX
  5
1C8
330
1C7
100
AcDbEntity
  8
Capa 1
 62
    29
370
    20
100
AcDbVertex
100
AcDb2dVertex
 10
94.08457866202882
 20
-94.58369380600531
 30
0.0
  0
VERTEX
  5
1C9
330
1C7
100
AcDbEntity
  8
Capa 1
 62
    29
370
    20
100
AcDbVertex
100
AcDb2dVertex
 10
94.08457866202882
 20
-95.18369319987502
 30
0.0
  0
VERTEX
  5
1CA
330
1C7
100
AcDbEntity
  8
Capa 1
 62
    29
370
    20
100
AcDbVertex
100
AcDb2dVertex
 10
93.28458328489991
 20
-95.18369319987502
 30
0.0
  0
VERTEX
  5
1CB
330
1C7
100
AcDbEntity
  8
Capa 1
 62
    29
370
    20
100
AcDbVertex
100
AcDb2dVertex
 10
93.28458328489991
 20
-107.8336921031327
 30
0.0
  0
VERTEX
  5
1CC
330
1C7
100
AcDbEntity
  8
Capa 1
 62
    29
370
    20
100
AcDbVertex
100
AcDb2dVertex
 10
94.08457866202882
 20
-107.8336921031327
 30
0.0
  0
VERTEX
  5
1CD
330
1C7
100
AcDbEntity
  8
Capa 1
 62
    29
370
    20
100
AcDbVertex
100
AcDb2dVertex
 10
94.08457866202882
 20
-108.4336924506766
 30
0.0
  0
VERTEX
  5
1CE
330
1C7
100
AcDbEntity
  8
Capa 1
 62
    29
370
    20
100
AcDbVertex
100
AcDb2dVertex
 10
107.9345839824197
 20
-108.4336924506766
 30
0.0
  0
VERTEX
  5
1CF
330
1C7
100
AcDbEntity
  8
Capa 1
 62
    29
370
    20
100
AcDbVertex
100
AcDb2dVertex
 10
107.9345839824197
 20
-107.8336921031327
 30
0.0
  0
VERTEX
  5
1D0
330
1C7
100
AcDbEntity
  8
Capa 1
 62
    29
370
    20
100
AcDbVertex
100
AcDb2dVertex
 10
108.7345793595487
 20
-107.8336921031327
 30
0.0
  0
VERTEX
  5
1D1
330
1C7
100
AcDbEntity
  8
Capa 1
 62
    29
370
    20
100
AcDbVertex
100
AcDb2dVertex
 10
108.7345793595487
 20
-95.18369319987502
 30
0.0
  0
VERTEX
  5
1D2
330
1C7
100
AcDbEntity
  8
Capa 1
 62
    29
370
    20
100
AcDbVertex
100
AcDb2dVertex
 10
107.9345839824197
 20
-95.18369319987502
 30
0.0
  0
VERTEX
  5
1D3
330
1C7
100
AcDbEntity
  8
Capa 1
 62
    29
370
    20
100
AcDbVertex
100
AcDb2dVertex
 10
107.9345839824197
 20
-94.58369380600531
 30
0.0
  0
VERTEX
  5
1D4
330
1C7
100
AcDbEntity
  8
Capa 1
 62
    29
370
    20
100
AcDbVertex
100
AcDb2dVertex
 10
94.08457866202882
 20
-94.58369380600531
 30
0.0
  0
SEQEND
  5
1D5
330
1C7
100
AcDbEntity
  8
Capa 1
 62
    29
370
    20
  0
POLYLINE
  5
1D6
330
1F
100
AcDbEntity
  8
Capa 1
 62
    29
370
    20
100
AcDb2dPolyline
 66
     1
 10
0.0
 20
0.0
 30
0.0
  0
VERTEX
  5
1D7
330
1D6
100
AcDbEntity
  8
Capa 1
 62
    29
370
    20
100
AcDbVertex
100
AcDb2dVertex
 10
169.9849016776278
 20
-174.0860437183354
 30
0.0
  0
VERTEX
  5
1D8
330
1D6
100
AcDbEntity
  8
Capa 1
 62
    29
370
    20
100
AcDbVertex
100
AcDb2dVertex
 10
169.4655232686822
 20
-173.7861804540979
 30
0.0
  0
VERTEX
  5
1D9
330
1D6
100
AcDbEntity
  8
Capa 1
 62
    29
370
    20
100
AcDbVertex
100
AcDb2dVertex
 10
169.8712155598624
 20
-173.0835007935854
 30
0.0
  0
VERTEX
  5
1DA
330
1D6
100
AcDbEntity
  8
Capa 1
 62
    29
370
    20
100
AcDbVertex
100
AcDb2dVertex
 10
158.9032462511882
 20
-166.7511407603211
 30
0.0
  0
VERTEX
  5
1DB
330
1D6
100
AcDbEntity
  8
Capa 1
 62
    29
370
    20
100
AcDbVertex
100
AcDb2dVertex
 10
158.4975539600087
 20
-167.4538204208337
 30
0.0
  0
VERTEX
  5
1DC
330
1D6
100
AcDbEntity
  8
Capa 1
 62
    29
370
    20
100
AcDbVertex
100
AcDb2dVertex
 10
157.9781802128456
 20
-167.1539598480796
 30
0.0
  0
VERTEX
  5
1DD
330
1D6
100
AcDbEntity
  8
Capa 1
 62
    29
370
    20
100
AcDbVertex
100
AcDb2dVertex
 10
156.4965146230653
 20
-169.720279929228
 30
0.0
  0
VERTEX
  5
1DE
330
1D6
100
AcDbEntity
  8
Capa 1
 62
    29
370
    20
100
AcDbVertex
100
AcDb2dVertex
 10
155.8549322718863
 20
-169.3498621860423
 30
0.0
  0
VERTEX
  5
1DF
330
1D6
100
AcDbEntity
  8
Capa 1
 62
    29
370
    20
100
AcDbVertex
100
AcDb2dVertex
 10
154.2850695461983
 20
-172.0689441876557
 30
0.0
  0
VERTEX
  5
1E0
330
1D6
100
AcDbEntity
  8
Capa 1
 62
    29
370
    20
100
AcDbVertex
100
AcDb2dVertex
 10
154.926651897376
 20
-172.4393619308414
 30
0.0
  0
VERTEX
  5
1E1
330
1D6
100
AcDbEntity
  8
Capa 1
 62
    29
370
    20
100
AcDbVertex
100
AcDb2dVertex
 10
144.5902646254245
 20
-190.3425098513333
 30
0.0
  0
VERTEX
  5
1E2
330
1D6
100
AcDbEntity
  8
Capa 1
 62
    29
370
    20
100
AcDbVertex
100
AcDb2dVertex
 10
143.9486822742456
 20
-189.9720921081476
 30
0.0
  0
VERTEX
  5
1E3
330
1D6
100
AcDbEntity
  8
Capa 1
 62
    29
370
    20
100
AcDbVertex
100
AcDb2dVertex
 10
142.3788195485576
 20
-192.6911741097611
 30
0.0
  0
VERTEX
  5
1E4
330
1D6
100
AcDbEntity
  8
Capa 1
 62
    29
370
    20
100
AcDbVertex
100
AcDb2dVertex
 10
143.0204018997352
 20
-193.0615918529467
 30
0.0
  0
VERTEX
  5
1E5
330
1D6
100
AcDbEntity
  8
Capa 1
 62
    29
370
    20
100
AcDbVertex
100
AcDb2dVertex
 10
141.538736309955
 20
-195.6279119340963
 30
0.0
  0
VERTEX
  5
1E6
330
1D6
100
AcDbEntity
  8
Capa 1
 62
    29
370
    20
100
AcDbVertex
100
AcDb2dVertex
 10
142.0581100571181
 20
-195.9277725068517
 30
0.0
  0
VERTEX
  5
1E7
330
1D6
100
AcDbEntity
  8
Capa 1
 62
    29
370
    20
100
AcDbVertex
100
AcDb2dVertex
 10
141.6524150744578
 20
-196.6304568291461
 30
0.0
  0
VERTEX
  5
1E8
330
1D6
100
AcDbEntity
  8
Capa 1
 62
    29
370
    20
100
AcDbVertex
100
AcDb2dVertex
 10
152.6203843831319
 20
-202.9628168624103
 30
0.0
  0
VERTEX
  5
1E9
330
1D6
100
AcDbEntity
  8
Capa 1
 62
    29
370
    20
100
AcDbVertex
100
AcDb2dVertex
 10
153.0260793657916
 20
-202.2601325401147
 30
0.0
  0
VERTEX
  5
1EA
330
1D6
100
AcDbEntity
  8
Capa 1
 62
    29
370
    20
100
AcDbVertex
100
AcDb2dVertex
 10
153.5454577747372
 20
-202.5599958043522
 30
0.0
  0
VERTEX
  5
1EB
330
1D6
100
AcDbEntity
  8
Capa 1
 62
    29
370
    20
100
AcDbVertex
100
AcDb2dVertex
 10
169.9849016776278
 20
-174.0860437183354
 30
0.0
  0
SEQEND
  5
1EC
330
1D6
100
AcDbEntity
  8
Capa 1
 62
    29
370
    20
  0
SPLINE
  5
1ED
330
1F
100
AcDbEntity
  8
Capa 1
 62
    29
370
    20
100
AcDbSpline
210
0.0
220
0.0
230
1.0
 70
    11
 71
     3
 72
    77
 73
    73
 74
     0
 42
0.0000000001
 43
0.0000000001
 12
1.0
 22
0.0
 32
0.0
 13
1.0
 23
0.0
 33
0.0
 40
0.0
 40
0.0
 40
0.0
 40
0.0
 40
1.0
 40
1.0
 40
1.0
 40
2.0
 40
2.0
 40
2.0
 40
3.0
 40
3.0
 40
3.0
 40
4.0
 40
4.0
 40
4.0
 40
5.0
 40
5.0
 40
5.0
 40
6.0
 40
6.0
 40
6.0
 40
7.0
 40
7.0
 40
7.0
 40
8.0
 40
8.0
 40
8.0
 40
9.0
 40
9.0
 40
9.0
 40
10.0
 40
10.0
 40
10.0
 40
11.0
 40
11.0
 40
11.0
 40
12.0
 40
12.0
 40
12.0
 40
13.0
 40
13.0
 40
13.0
 40
14.0
 40
14.0
 40
14.0
 40
15.0
 40
15.0
 40
15.0
 40
16.0
 40
16.0
 40
16.0
 40
17.0
 40
17.0
 40
17.0
 40
18.0
 40
18.0
 40
18.0
 40
19.0
 40
19.0
 40
19.0
 40
20.0
 40
20.0
 40
20.0
 40
21.0
 40
21.0
 40
21.0
 40
22.0
 40
22.0
 40
22.0
 40
23.0
 40
23.0
 40
23.0
 40
24.0
 40
24.0
 40
24.0
 40
24.0
 10
154.3059687178999
 20
-215.2882941056554
 30
0.0
 10
153.7840367518846
 20
-215.2882941056554
 30
0.0
 10
153.2662389004515
 20
-215.152212833988
 30
0.0
 10
152.8063186531706
 20
-214.8865959720753
 30
0.0
 10
152.8063186531706
 20
-214.8865959720753
 30
0.0
 10
150.2073386190982
 20
-213.3866013977975
 30
0.0
 10
150.2073386190982
 20
-213.3866013977975
 30
0.0
 10
134.5840028482644
 20
-204.3707865128987
 30
0.0
 10
121.7188105229217
 20
-202.9362487528406
 30
0.0
 10
109.2773649422647
 20
-201.5489088009305
 30
0.0
 10
106.0336352881277
 20
-201.1871737749793
 30
0.0
 10
102.6894811005957
 20
-200.8140699339268
 30
0.0
 10
99.39373050463143
 20
-200.3145310885655
 30
0.0
 10
99.39373050463143
 20
-200.3145310885655
 30
0.0
 10
96.84275437511123
 20
-199.9272155179084
 30
0.0
 10
96.84275437511123
 20
-199.9272155179084
 30
0.0
 10
95.37670870909929
 20
-199.7046253073726
 30
0.0
 10
94.29326663871906
 20
-198.444267013986
 30
0.0
 10
94.29326663871906
 20
-196.9614196527719
 30
0.0
 10
94.29326663871906
 20
-196.9614196527719
 30
0.0
 10
94.29326663871906
 20
-184.330694784329
 30
0.0
 10
94.29326663871906
 20
-184.330694784329
 30
0.0
 10
94.29326663871906
 20
-182.6745917417899
 30
0.0
 10
92.95072986176844
 20
-181.3320549648389
 30
0.0
 10
91.29462681922867
 20
-181.3320549648389
 30
0.0
 10
91.29462681922867
 20
-181.3320549648389
 30
0.0
 10
31.32381135932253
 20
-181.3320549648389
 30
0.0
 10
31.32381135932253
 20
-181.3320549648389
 30
0.0
 10
29.66696310291784
 20
-181.3320549648389
 30
0.0
 10
28.32382221076697
 20
-179.988914072689
 30
0.0
 10
28.32382221076697
 20
-178.3320658162834
 30
0.0
 10
28.32382221076697
 20
-178.3320658162834
 30
0.0
 10
28.32382221076697
 20
-96.83258486207276
 30
0.0
 10
28.32382221076697
 20
-96.83258486207276
 30
0.0
 10
28.32382221076697
 20
-95.4759925719388
 30
0.0
 10
29.23420403992199
 20
-94.28821371457023
 30
0.0
 10
30.54418625101049
 20
-93.93566691160153
 30
0.0
 10
30.54418625101049
 20
-93.93566691160153
 30
0.0
 10
32.76455029125401
 20
-93.33811509968494
 30
0.0
 10
32.76455029125401
 20
-93.33811509968494
 30
0.0
 10
62.13002744320084
 20
-85.43506605652182
 30
0.0
 10
86.03158315554143
 20
-81.59326782614546
 30
0.0
 10
105.8350255334031
 20
-81.59326782614546
 30
0.0
 10
124.2797222518822
 20
-81.59326782614546
 30
0.0
 10
139.2112828492778
 20
-84.82580091995538
 30
0.0
 10
151.4823684581891
 20
-91.47569648035888
 30
0.0
 10
151.4823684581891
 20
-91.47569648035888
 30
0.0
 10
153.0529874899146
 20
-92.32680731998985
 30
0.0
 10
153.0529874899146
 20
-92.32680731998985
 30
0.0
 10
154.0207680491475
 20
-92.85124291366945
 30
0.0
 10
154.6236065216399
 20
-93.8635791109915
 30
0.0
 10
154.6236065216399
 20
-94.9643206350321
 30
0.0
 10
154.6236065216399
 20
-94.9643206350321
 30
0.0
 10
154.6236065216399
 20
-144.3758266754672
 30
0.0
 10
154.6236065216399
 20
-144.3758266754672
 30
0.0
 10
154.6236065216399
 20
-151.2856546902325
 30
0.0
 10
161.7363506604867
 20
-156.5580288208588
 30
0.0
 10
177.680252566223
 20
-165.7629794478979
 30
0.0
 10
177.680252566223
 20
-165.7629794478979
 30
0.0
 10
180.2770544799972
 20
-167.2622208817988
 30
0.0
 10
180.2770544799972
 20
-167.2622208817988
 30
0.0
 10
181.7115086280834
 20
-168.090390748139
 30
0.0
 10
182.2033603602077
 20
-169.9243829403697
 30
0.0
 10
181.3758064932505
 20
-171.3591925541377
 30
0.0
 10
181.3758064932505
 20
-171.3591925541377
 30
0.0
 10
156.9046042424239
 20
-213.7872660027321
 30
0.0
 10
156.9046042424239
 20
-213.7872660027321
 30
0.0
 10
156.507040223426
 20
-214.4766296093306
 30
0.0
 10
155.8517830621315
 20
-214.979613550177
 30
0.0
 10
155.0831822593723
 20
-215.1859747697435
 30
0.0
 10
154.8275561743667
 20
-215.2545321699
 30
0.0
 10
154.5664179365848
 20
-215.2882941056554
 30
0.0
 10
154.3059687178999
 20
-215.2882941056554
 30
0.0
  0
ENDSEC
  0
SECTION
  2
OBJECTS
  0
DICTIONARY
  5
C
330
0
100
AcDbDictionary
281
     1
  3
ACAD_GROUP
350
D
  3
ACAD_LAYOUT
350
1A
  3
ACAD_MATERIAL
350
3B
  3
ACAD_MLEADERSTYLE
350
1F0
  3
ACAD_MLINESTYLE
350
17
  3
ACAD_PLOTSETTINGS
350
19
  3
ACAD_PLOTSTYLENAME
350
E
  3
ACAD_VISUALSTYLE
350
2A
  3
AcDbVariableDictionary
350
1EE
  0
DICTIONARY
  5
D
102
{ACAD_REACTORS
330
C
102
}
330
C
100
AcDbDictionary
281
     1
  0
DICTIONARY
  5
1A
102
{ACAD_REACTORS
330
C
102
}
330
C
100
AcDbDictionary
281
     1
  3
Layout1
350
1E
  3
Layout2
350
26
  3
Model
350
22
  0
DICTIONARY
  5
3B
102
{ACAD_REACTORS
330
C
102
}
330
C
100
AcDbDictionary
281
     1
  3
ByBlock
350
3D
  3
ByLayer
350
3C
  3
Global
350
3E
  0
DICTIONARY
  5
1F0
102
{ACAD_REACTORS
330
C
102
}
330
C
100
AcDbDictionary
281
     1
  0
DICTIONARY
  5
17
102
{ACAD_REACTORS
330
C
102
}
330
C
100
AcDbDictionary
281
     1
  3
Standard
350
18
  0
DICTIONARY
  5
19
102
{ACAD_REACTORS
330
C
102
}
330
C
100
AcDbDictionary
281
     1
  0
ACDBDICTIONARYWDFLT
  5
E
102
{ACAD_REACTORS
330
C
102
}
330
C
100
AcDbDictionary
281
     1
  3
Normal
350
F
100
AcDbDictionaryWithDefault
340
F
  0
DICTIONARY
  5
2A
102
{ACAD_REACTORS
330
C
102
}
330
C
100
AcDbDictionary
281
     1
  3
2dWireframe
350
2F
  3
3D Hidden
350
31
  3
3dWireframe
350
30
  3
Basic
350
32
  3
Brighten
350
36
  3
ColorChange
350
3A
  3
Conceptual
350
34
  3
Dim
350
35
  3
Facepattern
350
39
  3
Flat
350
2B
  3
FlatWithEdges
350
2C
  3
Gouraud
350
2D
  3
GouraudWithEdges
350
2E
  3
Linepattern
350
38
  3
Realistic
350
33
  3
Thicken
350
37
  0
DICTIONARY
  5
1EE
102
{ACAD_REACTORS
330
C
102
}
330
C
100
AcDbDictionary
281
     1
  3
DIMASSOC
350
1F1
  3
HIDETEXT
350
1F2
  0
LAYOUT
  5
1E
102
{ACAD_REACTORS
330
1A
102
}
330
1A
100
AcDbPlotSettings
  1

  2
none_device
  4

  6

 40
0.0
 41
0.0
 42
0.0
 43
0.0
 44
0.0
 45
0.0
 46
0.0
 47
0.0
 48
0.0
 49
0.0
140
0.0
141
0.0
142
1.0
143
1.0
 70
   688
 72
     0
 73
     0
 74
     5
  7

 75
    16
147
1.0
148
0.0
149
0.0
100
AcDbLayout
  1
Layout1
 70
     1
 71
     1
 10
0.0
 20
0.0
 11
12.0
 21
9.0
 12
0.0
 22
0.0
 32
0.0
 14
1.000000000000000E+20
 24
1.000000000000000E+20
 34
1.000000000000000E+20
 15
-1.000000000000000E+20
 25
-1.000000000000000E+20
 35
-1.000000000000000E+20
146
0.0
 13
0.0
 23
0.0
 33
0.0
 16
1.0
 26
0.0
 36
0.0
 17
0.0
 27
1.0
 37
0.0
 76
     0
330
1B
  0
LAYOUT
  5
26
102
{ACAD_REACTORS
330
1A
102
}
330
1A
100
AcDbPlotSettings
  1

  2
none_device
  4

  6

 40
0.0
 41
0.0
 42
0.0
 43
0.0
 44
0.0
 45
0.0
 46
0.0
 47
0.0
 48
0.0
 49
0.0
140
0.0
141
0.0
142
1.0
143
1.0
 70
   688
 72
     0
 73
     0
 74
     5
  7

 75
    16
147
1.0
148
0.0
149
0.0
100
AcDbLayout
  1
Layout2
 70
     1
 71
     2
 10
0.0
 20
0.0
 11
0.0
 21
0.0
 12
0.0
 22
0.0
 32
0.0
 14
0.0
 24
0.0
 34
0.0
 15
0.0
 25
0.0
 35
0.0
146
0.0
 13
0.0
 23
0.0
 33
0.0
 16
1.0
 26
0.0
 36
0.0
 17
0.0
 27
1.0
 37
0.0
 76
     0
330
23
  0
LAYOUT
  5
22
102
{ACAD_REACTORS
330
1A
102
}
330
1A
100
AcDbPlotSettings
  1

  2
none_device
  4

  6

 40
0.0
 41
0.0
 42
0.0
 43
0.0
 44
0.0
 45
0.0
 46
0.0
 47
0.0
 48
0.0
 49
0.0
140
0.0
141
0.0
142
1.0
143
1.0
 70
  1712
 72
     0
 73
     0
 74
     0
  7

 75
     0
147
1.0
148
0.0
149
0.0
100
AcDbLayout
  1
Model
 70
     1
 71
     0
 10
0.0
 20
0.0
 11
12.0
 21
9.0
 12
0.0
 22
0.0
 32
0.0
 14
1.000000000000000E+20
 24
1.000000000000000E+20
 34
1.000000000000000E+20
 15
-1.000000000000000E+20
 25
-1.000000000000000E+20
 35
-1.000000000000000E+20
146
0.0
 13
0.0
 23
0.0
 33
0.0
 16
1.0
 26
0.0
 36
0.0
 17
0.0
 27
1.0
 37
0.0
 76
     0
330
1F
331
29
  0
MATERIAL
  5
3D
102
{ACAD_REACTORS
330
3B
102
}
102
{ACAD_XDICTIONARY
360
215
102
}
330
3B
100
AcDbMaterial
  1
ByBlock
  0
MATERIAL
  5
3C
102
{ACAD_REACTORS
330
3B
102
}
102
{ACAD_XDICTIONARY
360
213
102
}
330
3B
100
AcDbMaterial
  1
ByLayer
  0
MATERIAL
  5
3E
102
{ACAD_REACTORS
330
3B
102
}
102
{ACAD_XDICTIONARY
360
217
102
}
330
3B
100
AcDbMaterial
  1
Global
  0
MLINESTYLE
  5
18
102
{ACAD_REACTORS
330
17
102
}
330
17
100
AcDbMlineStyle
  2
Standard
 70
     0
  3

 62
   256
 51
90.0
 52
90.0
 71
     2
 49
0.5
 62
   256
  6
BYLAYER
 49
-0.5
 62
   256
  6
BYLAYER
  0
ACDBPLACEHOLDER
  5
F
102
{ACAD_REACTORS
330
E
102
}
330
E
  0
VISUALSTYLE
  5
2F
102
{ACAD_REACTORS
330
2A
102
}
102
{ACAD_XDICTIONARY
360
1FB
102
}
330
2A
100
AcDbVisualStyle
  2
2dWireframe
 70
     4
 71
     0
 72
     2
 73
     0
 90
        0
 40
-0.6
 41
-30.0
 62
     5
 63
     7
 74
     1
 91
        4
 64
     7
 65
   257
 75
     1
175
     1
 42
1.0
 92
        0
 66
   257
 43
1.0
 76
     1
 77
     6
 78
     2
 67
     7
 79
     5
170
     0
171
     0
290
     0
174
     0
 93
        1
 44
0.0
173
     0
291
     0
 45
0.0
1001
ACAD
1000
AcDbSavedByObjectVersion
1070
     0
  0
VISUALSTYLE
  5
31
102
{ACAD_REACTORS
330
2A
102
}
102
{ACAD_XDICTIONARY
360
1FF
102
}
330
2A
100
AcDbVisualStyle
  2
3D Hidden
 70
     6
 71
     1
 72
     2
 73
     2
 90
        0
 40
-0.6
 41
-30.0
 62
     5
 63
     7
 74
     2
 91
        2
 64
     7
 65
   257
 75
     2
175
     1
 42
40.0
 92
        0
 66
   257
 43
1.0
 76
     1
 77
     6
 78
     2
 67
     7
 79
     3
170
     0
171
     0
290
     0
174
     0
 93
        1
 44
0.0
173
     0
291
     0
 45
0.0
1001
ACAD
1000
AcDbSavedByObjectVersion
1070
     0
  0
VISUALSTYLE
  5
30
102
{ACAD_REACTORS
330
2A
102
}
102
{ACAD_XDICTIONARY
360
1FD
102
}
330
2A
100
AcDbVisualStyle
  2
3dWireframe
 70
     5
 71
     0
 72
     2
 73
     0
 90
        0
 40
-0.6
 41
-30.0
 62
     5
 63
     7
 74
     1
 91
        4
 64
     7
 65
   257
 75
     1
175
     1
 42
1.0
 92
        0
 66
   257
 43
1.0
 76
     1
 77
     6
 78
     2
 67
     7
 79
     5
170
     0
171
     0
290
     0
174
     0
 93
        1
 44
0.0
173
     0
291
     0
 45
0.0
1001
ACAD
1000
AcDbSavedByObjectVersion
1070
     0
  0
VISUALSTYLE
  5
32
102
{ACAD_REACTORS
330
2A
102
}
102
{ACAD_XDICTIONARY
360
201
102
}
330
2A
100
AcDbVisualStyle
  2
Basic
 70
     7
 71
     1
 72
     0
 73
     1
 90
        0
 40
-0.6
 41
-30.0
 62
     5
 63
     7
 74
     0
 91
        4
 64
     7
 65
   257
 75
     1
175
     1
 42
1.0
 92
        8
 66
     7
 43
1.0
 76
     1
 77
     6
 78
     2
 67
     7
 79
     5
170
     0
171
     0
290
     0
174
     0
 93
        1
 44
0.0
173
     0
291
     1
 45
0.0
1001
ACAD
1000
AcDbSavedByObjectVersion
1070
     0
  0
VISUALSTYLE
  5
36
102
{ACAD_REACTORS
330
2A
102
}
102
{ACAD_XDICTIONARY
360
209
102
}
330
2A
100
AcDbVisualStyle
  2
Brighten
 70
    12
 71
     2
 72
     2
 73
     0
 90
        0
 40
-0.6
 41
-30.0
 62
     5
 63
     7
 74
     1
 91
        4
 64
     7
 65
   257
 75
     1
175
     1
 42
1.0
 92
        8
 66
     7
 43
1.0
 76
     1
 77
     6
 78
     2
 67
     7
 79
     5
170
     0
171
     0
290
     0
174
     0
 93
        1
 44
50.0
173
     0
291
     1
 45
0.0
1001
ACAD
1000
AcDbSavedByObjectVersion
1070
     0
  0
VISUALSTYLE
  5
3A
102
{ACAD_REACTORS
330
2A
102
}
102
{ACAD_XDICTIONARY
360
211
102
}
330
2A
100
AcDbVisualStyle
  2
ColorChange
 70
    16
 71
     2
 72
     2
 73
     3
 90
        0
 40
-0.6
 41
-30.0
 62
     5
 63
     8
 74
     1
 91
        4
 64
     7
 65
   257
 75
     1
175
     1
 42
1.0
 92
        8
 66
     8
 43
1.0
 76
     1
 77
     6
 78
     2
 67
     7
 79
     5
170
     0
171
     0
290
     0
174
     0
 93
        1
 44
0.0
173
     0
291
     1
 45
0.0
1001
ACAD
1000
AcDbSavedByObjectVersion
1070
     0
  0
VISUALSTYLE
  5
34
102
{ACAD_REACTORS
330
2A
102
}
102
{ACAD_XDICTIONARY
360
205
102
}
330
2A
100
AcDbVisualStyle
  2
Conceptual
 70
     9
 71
     3
 72
     2
 73
     0
 90
        0
 40
-0.6
 41
-30.0
 62
     5
 63
     7
 74
     2
 91
        2
 64
     7
 65
   257
 75
     1
175
     1
 42
40.0
 92
        8
 66
     7
 43
1.0
 76
     1
 77
     6
 78
     2
 67
     7
 79
     3
170
     0
171
     0
290
     0
174
     0
 93
        1
 44
0.0
173
     0
291
     0
 45
0.0
1001
ACAD
1000
AcDbSavedByObjectVersion
1070
     0
  0
VISUALSTYLE
  5
35
102
{ACAD_REACTORS
330
2A
102
}
102
{ACAD_XDICTIONARY
360
207
102
}
330
2A
100
AcDbVisualStyle
  2
Dim
 70
    11
 71
     2
 72
     2
 73
     0
 90
        0
 40
-0.6
 41
-30.0
 62
     5
 63
     7
 74
     1
 91
        4
 64
     7
 65
   257
 75
     1
175
     1
 42
1.0
 92
        8
 66
     7
 43
1.0
 76
     1
 77
     6
 78
     2
 67
     7
 79
     5
170
     0
171
     0
290
     0
174
     0
 93
        1
 44
-50.0
173
     0
291
     1
 45
0.0
1001
ACAD
1000
AcDbSavedByObjectVersion
1070
     0
  0
VISUALSTYLE
  5
39
102
{ACAD_REACTORS
330
2A
102
}
102
{ACAD_XDICTIONARY
360
20F
102
}
330
2A
100
AcDbVisualStyle
  2
Facepattern
 70
    15
 71
     2
 72
     2
 73
     0
 90
        0
 40
-0.6
 41
-30.0
 62
     5
 63
     7
 74
     1
 91
        4
 64
     7
 65
   257
 75
     1
175
     1
 42
1.0
 92
        8
 66
     7
 43
1.0
 76
     1
 77
     6
 78
     2
 67
     7
 79
     5
170
     0
171
     0
290
     0
174
     0
 93
        1
 44
0.0
173
     0
291
     1
 45
0.0
1001
ACAD
1000
AcDbSavedByObjectVersion
1070
     0
  0
VISUALSTYLE
  5
2B
102
{ACAD_REACTORS
330
2A
102
}
102
{ACAD_XDICTIONARY
360
1F3
102
}
330
2A
100
AcDbVisualStyle
  2
Flat
 70
     0
 71
     2
 72
     1
 73
     1
 90
        2
 40
-0.6
 41
30.0
 62
     5
 63
     7
 74
     0
 91
        4
 64
     7
 65
   257
 75
     1
175
     1
 42
1.0
 92
        8
 66
     7
 43
1.0
 76
     1
 77
     6
 78
     2
 67
     7
 79
     5
170
     0
171
     0
290
     0
174
     0
 93
       13
 44
0.0
173
     0
291
     1
 45
0.0
1001
ACAD
1000
AcDbSavedByObjectVersion
1070
     0
  0
VISUALSTYLE
  5
2C
102
{ACAD_REACTORS
330
2A
102
}
102
{ACAD_XDICTIONARY
360
1F5
102
}
330
2A
100
AcDbVisualStyle
  2
FlatWithEdges
 70
     1
 71
     2
 72
     1
 73
     1
 90
        2
 40
-0.6
 41
30.0
 62
     5
 63
     7
 74
     1
 91
        4
 64
     7
 65
   257
 75
     1
175
     1
 42
1.0
 92
        0
 66
   257
 43
1.0
 76
     1
 77
     6
 78
     2
 67
     7
 79
     5
170
     0
171
     0
290
     0
174
     0
 93
       13
 44
0.0
173
     0
291
     1
 45
0.0
1001
ACAD
1000
AcDbSavedByObjectVersion
1070
     0
  0
VISUALSTYLE
  5
2D
102
{ACAD_REACTORS
330
2A
102
}
102
{ACAD_XDICTIONARY
360
1F7
102
}
330
2A
100
AcDbVisualStyle
  2
Gouraud
 70
     2
 71
     2
 72
     2
 73
     1
 90
        2
 40
-0.6
 41
30.0
 62
     5
 63
     7
 74
     0
 91
        4
 64
     7
 65
   257
 75
     1
175
     1
 42
1.0
 92
        0
 66
     7
 43
1.0
 76
     1
 77
     6
 78
     2
 67
     7
 79
     5
170
     0
171
     0
290
     0
174
     0
 93
       13
 44
0.0
173
     0
291
     1
 45
0.0
1001
ACAD
1000
AcDbSavedByObjectVersion
1070
     0
  0
VISUALSTYLE
  5
2E
102
{ACAD_REACTORS
330
2A
102
}
102
{ACAD_XDICTIONARY
360
1F9
102
}
330
2A
100
AcDbVisualStyle
  2
GouraudWithEdges
 70
     3
 71
     2
 72
     2
 73
     1
 90
        2
 40
-0.6
 41
30.0
 62
     5
 63
     7
 74
     1
 91
        4
 64
     7
 65
   257
 75
     1
175
     1
 42
1.0
 92
        0
 66
   257
 43
1.0
 76
     1
 77
     6
 78
     2
 67
     7
 79
     5
170
     0
171
     0
290
     0
174
     0
 93
       13
 44
0.0
173
     0
291
     1
 45
0.0
1001
ACAD
1000
AcDbSavedByObjectVersion
1070
     0
  0
VISUALSTYLE
  5
38
102
{ACAD_REACTORS
330
2A
102
}
102
{ACAD_XDICTIONARY
360
20D
102
}
330
2A
100
AcDbVisualStyle
  2
Linepattern
 70
    14
 71
     2
 72
     2
 73
     0
 90
        0
 40
-0.6
 41
-30.0
 62
     5
 63
     7
 74
     1
 91
        4
 64
     7
 65
   257
 75
     7
175
     7
 42
1.0
 92
        8
 66
     7
 43
1.0
 76
     1
 77
     6
 78
     2
 67
     7
 79
     5
170
     0
171
     0
290
     0
174
     0
 93
        1
 44
0.0
173
     0
291
     1
 45
0.0
1001
ACAD
1000
AcDbSavedByObjectVersion
1070
     0
  0
VISUALSTYLE
  5
33
102
{ACAD_REACTORS
330
2A
102
}
102
{ACAD_XDICTIONARY
360
203
102
}
330
2A
100
AcDbVisualStyle
  2
Realistic
 70
     8
 71
     2
 72
     2
 73
     0
 90
        0
 40
-0.6
 41
-30.0
 62
     5
 63
     7
 74
     1
 91
        0
 64
     7
 65
   257
 75
     1
175
     1
 42
1.0
 92
        8
 66
     8
 43
1.0
 76
     1
 77
     6
 78
     2
 67
     7
 79
     5
170
     0
171
     0
290
     0
174
     0
 93
       13
 44
0.0
173
     0
291
     0
 45
0.0
1001
ACAD
1000
AcDbSavedByObjectVersion
1070
     0
  0
VISUALSTYLE
  5
37
102
{ACAD_REACTORS
330
2A
102
}
102
{ACAD_XDICTIONARY
360
20B
102
}
330
2A
100
AcDbVisualStyle
  2
Thicken
 70
    13
 71
     2
 72
     2
 73
     0
 90
        0
 40
-0.6
 41
-30.0
 62
     5
 63
     7
 74
     1
 91
        4
 64
     7
 65
   257
 75
     1
175
     1
 42
1.0
 92
       12
 66
     7
 43
1.0
 76
     1
 77
     6
 78
     2
 67
     7
 79
     5
170
     0
171
     0
290
     0
174
     0
 93
        1
 44
0.0
173
     0
291
     1
 45
0.0
1001
ACAD
1000
AcDbSavedByObjectVersion
1070
     0
  0
DICTIONARYVAR
  5
1F1
102
{ACAD_REACTORS
330
1EE
102
}
330
1EE
100
DictionaryVariables
280
     0
  1
2
  0
DICTIONARYVAR
  5
1F2
102
{ACAD_REACTORS
330
1EE
102
}
330
1EE
100
DictionaryVariables
280
     0
  1
1
  0
DICTIONARY
  5
215
330
3D
100
AcDbDictionary
280
     1
281
     1
  3
ACAD_XREC_ROUNDTRIP
360
216
  0
DICTIONARY
  5
213
330
3C
100
AcDbDictionary
280
     1
281
     1
  3
ACAD_XREC_ROUNDTRIP
360
214
  0
DICTIONARY
  5
217
330
3E
100
AcDbDictionary
280
     1
281
     1
  3
ACAD_XREC_ROUNDTRIP
360
218
  0
DICTIONARY
  5
1FB
330
2F
100
AcDbDictionary
280
     1
281
     1
  3
ACAD_XREC_ROUNDTRIP
360
1FC
  0
DICTIONARY
  5
1FF
330
31
100
AcDbDictionary
280
     1
281
     1
  3
ACAD_XREC_ROUNDTRIP
360
200
  0
DICTIONARY
  5
1FD
330
30
100
AcDbDictionary
280
     1
281
     1
  3
ACAD_XREC_ROUNDTRIP
360
1FE
  0
DICTIONARY
  5
201
330
32
100
AcDbDictionary
280
     1
281
     1
  3
ACAD_XREC_ROUNDTRIP
360
202
  0
DICTIONARY
  5
209
330
36
100
AcDbDictionary
280
     1
281
     1
  3
ACAD_XREC_ROUNDTRIP
360
20A
  0
DICTIONARY
  5
211
330
3A
100
AcDbDictionary
280
     1
281
     1
  3
ACAD_XREC_ROUNDTRIP
360
212
  0
DICTIONARY
  5
205
330
34
100
AcDbDictionary
280
     1
281
     1
  3
ACAD_XREC_ROUNDTRIP
360
206
  0
DICTIONARY
  5
207
330
35
100
AcDbDictionary
280
     1
281
     1
  3
ACAD_XREC_ROUNDTRIP
360
208
  0
DICTIONARY
  5
20F
330
39
100
AcDbDictionary
280
     1
281
     1
  3
ACAD_XREC_ROUNDTRIP
360
210
  0
DICTIONARY
  5
1F3
330
2B
100
AcDbDictionary
280
     1
281
     1
  3
ACAD_XREC_ROUNDTRIP
360
1F4
  0
DICTIONARY
  5
1F5
330
2C
100
AcDbDictionary
280
     1
281
     1
  3
ACAD_XREC_ROUNDTRIP
360
1F6
  0
DICTIONARY
  5
1F7
330
2D
100
AcDbDictionary
280
     1
281
     1
  3
ACAD_XREC_ROUNDTRIP
360
1F8
  0
DICTIONARY
  5
1F9
330
2E
100
AcDbDictionary
280
     1
281
     1
  3
ACAD_XREC_ROUNDTRIP
360
1FA
  0
DICTIONARY
  5
20D
330
38
100
AcDbDictionary
280
     1
281
     1
  3
ACAD_XREC_ROUNDTRIP
360
20E
  0
DICTIONARY
  5
203
330
33
100
AcDbDictionary
280
     1
281
     1
  3
ACAD_XREC_ROUNDTRIP
360
204
  0
DICTIONARY
  5
20B
330
37
100
AcDbDictionary
280
     1
281
     1
  3
ACAD_XREC_ROUNDTRIP
360
20C
  0
XRECORD
  5
216
102
{ACAD_REACTORS
330
215
102
}
330
215
100
AcDbXrecord
280
     1
102
MATERIAL
148
0.0
149
0.0
149
0.0
 93
        0
 94
      127
282
     0
 72
     1
 77
     1
171
     1
175
     1
179
     1
273
     0
  0
XRECORD
  5
214
102
{ACAD_REACTORS
330
213
102
}
330
213
100
AcDbXrecord
280
     1
102
MATERIAL
148
0.0
149
0.0
149
0.0
 93
        0
 94
      127
282
     0
 72
     1
 77
     1
171
     1
175
     1
179
     1
273
     0
  0
XRECORD
  5
218
102
{ACAD_REACTORS
330
217
102
}
330
217
100
AcDbXrecord
280
     1
102
MATERIAL
148
0.0
149
0.0
149
0.0
 93
        0
 94
      127
282
     0
 72
     1
 77
     1
171
     1
175
     1
179
     1
273
     0
  0
XRECORD
  5
1FC
102
{ACAD_REACTORS
330
1FB
102
}
330
1FB
100
AcDbXrecord
280
     1
102
RTVSPropertyOp0
 70
     1
102
RTVSPropertyOp1
 70
     1
102
RTVSPropertyOp2
 70
     1
102
RTVSPropertyOp3
 70
     1
102
RTVSPropertyOp4
 70
     1
102
RTVSPropertyOp5
 70
     1
102
RTVSPropertyOp6
 70
     1
102
RTVSPropertyOp7
 70
     1
102
RTVSPropertyOp8
 70
     1
102
RTVSPropertyOp9
 70
     1
102
RTVSPropertyOp10
 70
     1
102
RTVSPropertyOp11
 70
     1
102
RTVSPropertyOp12
 70
     1
102
RTVSPropertyOp13
 70
     1
102
RTVSPropertyOp14
 70
     1
102
RTVSPropertyOp15
 70
     1
102
RTVSPropertyOp16
 70
     1
102
RTVSPropertyOp17
 70
     1
102
RTVSPropertyOp18
 70
     1
102
RTVSPropertyOp19
 70
     1
102
RTVSPropertyOp20
 70
     1
102
RTVSPropertyOp21
 70
     1
102
RTVSPropertyOp22
 70
     1
102
RTVSPropertyOp23
 70
     1
102
RTVSPropertyOp24
 70
     1
102
RTVSPropertyOp25
 70
     1
102
RTVSPropertyOp26
 70
     1
102
RTVSPropertyOp27
 70
     1
102
RTVSPropertyOp28
 70
     1
102
RTVSPropertyOp29
 70
     1
102
RTVSPropertyOp30
 70
     1
102
RTVSPropertyOp31
 70
     1
102
RTVSPropertyOp32
 70
     1
  0
XRECORD
  5
200
102
{ACAD_REACTORS
330
1FF
102
}
330
1FF
100
AcDbXrecord
280
     1
102
RTVSPropertyOp0
 70
     1
102
RTVSPropertyOp1
 70
     1
102
RTVSPropertyOp2
 70
     1
102
RTVSPropertyOp3
 70
     1
102
RTVSPropertyOp4
 70
     1
102
RTVSPropertyOp5
 70
     1
102
RTVSPropertyOp6
 70
     1
102
RTVSPropertyOp7
 70
     1
102
RTVSPropertyOp8
 70
     1
102
RTVSPropertyOp9
 70
     1
102
RTVSPropertyOp10
 70
     1
102
RTVSPropertyOp11
 70
     1
102
RTVSPropertyOp12
 70
     1
102
RTVSPropertyOp13
 70
     1
102
RTVSPropertyOp14
 70
     1
102
RTVSPropertyOp15
 70
     1
102
RTVSPropertyOp16
 70
     1
102
RTVSPropertyOp17
 70
     1
102
RTVSPropertyOp18
 70
     1
102
RTVSPropertyOp19
 70
     1
102
RTVSPropertyOp20
 70
     1
102
RTVSPropertyOp21
 70
     1
102
RTVSPropertyOp22
 70
     1
102
RTVSPropertyOp23
 70
     1
102
RTVSPropertyOp24
 70
     1
102
RTVSPropertyOp25
 70
     1
102
RTVSPropertyOp26
 70
     1
102
RTVSPropertyOp27
 70
     1
102
RTVSPropertyOp28
 70
     1
102
RTVSPropertyOp29
 70
     1
102
RTVSPropertyOp30
 70
     1
102
RTVSPropertyOp31
 70
     1
102
RTVSPropertyOp32
 70
     1
  0
XRECORD
  5
1FE
102
{ACAD_REACTORS
330
1FD
102
}
330
1FD
100
AcDbXrecord
280
     1
102
RTVSPropertyOp0
 70
     1
102
RTVSPropertyOp1
 70
     1
102
RTVSPropertyOp2
 70
     1
102
RTVSPropertyOp3
 70
     1
102
RTVSPropertyOp4
 70
     1
102
RTVSPropertyOp5
 70
     1
102
RTVSPropertyOp6
 70
     1
102
RTVSPropertyOp7
 70
     1
102
RTVSPropertyOp8
 70
     1
102
RTVSPropertyOp9
 70
     1
102
RTVSPropertyOp10
 70
     1
102
RTVSPropertyOp11
 70
     1
102
RTVSPropertyOp12
 70
     1
102
RTVSPropertyOp13
 70
     1
102
RTVSPropertyOp14
 70
     1
102
RTVSPropertyOp15
 70
     1
102
RTVSPropertyOp16
 70
     1
102
RTVSPropertyOp17
 70
     1
102
RTVSPropertyOp18
 70
     1
102
RTVSPropertyOp19
 70
     1
102
RTVSPropertyOp20
 70
     1
102
RTVSPropertyOp21
 70
     1
102
RTVSPropertyOp22
 70
     1
102
RTVSPropertyOp23
 70
     1
102
RTVSPropertyOp24
 70
     1
102
RTVSPropertyOp25
 70
     1
102
RTVSPropertyOp26
 70
     1
102
RTVSPropertyOp27
 70
     1
102
RTVSPropertyOp28
 70
     1
102
RTVSPropertyOp29
 70
     1
102
RTVSPropertyOp30
 70
     1
102
RTVSPropertyOp31
 70
     1
102
RTVSPropertyOp32
 70
     1
  0
XRECORD
  5
202
102
{ACAD_REACTORS
330
201
102
}
330
201
100
AcDbXrecord
280
     1
102
RTVSPropertyOp0
 70
     1
102
RTVSPropertyOp1
 70
     1
102
RTVSPropertyOp2
 70
     1
102
RTVSPropertyOp3
 70
     1
102
RTVSPropertyOp4
 70
     1
102
RTVSPropertyOp5
 70
     1
102
RTVSPropertyOp6
 70
     1
102
RTVSPropertyOp7
 70
     1
102
RTVSPropertyOp8
 70
     1
102
RTVSPropertyOp9
 70
     1
102
RTVSPropertyOp10
 70
     1
102
RTVSPropertyOp11
 70
     1
102
RTVSPropertyOp12
 70
     1
102
RTVSPropertyOp13
 70
     1
102
RTVSPropertyOp14
 70
     1
102
RTVSPropertyOp15
 70
     1
102
RTVSPropertyOp16
 70
     1
102
RTVSPropertyOp17
 70
     1
102
RTVSPropertyOp18
 70
     1
102
RTVSPropertyOp19
 70
     1
102
RTVSPropertyOp20
 70
     1
102
RTVSPropertyOp21
 70
     1
102
RTVSPropertyOp22
 70
     1
102
RTVSPropertyOp23
 70
     1
102
RTVSPropertyOp24
 70
     1
102
RTVSPropertyOp25
 70
     1
102
RTVSPropertyOp26
 70
     1
102
RTVSPropertyOp27
 70
     1
102
RTVSPropertyOp28
 70
     1
102
RTVSPropertyOp29
 70
     1
102
RTVSPropertyOp30
 70
     1
102
RTVSPropertyOp31
 70
     1
102
RTVSPropertyOp32
 70
     1
  0
XRECORD
  5
20A
102
{ACAD_REACTORS
330
209
102
}
330
209
100
AcDbXrecord
280
     1
102
RTVSPropertyOp0
 70
     1
102
RTVSPropertyOp1
 70
     1
102
RTVSPropertyOp2
 70
     1
102
RTVSPropertyOp3
 70
     1
102
RTVSPropertyOp4
 70
     1
102
RTVSPropertyOp5
 70
     1
102
RTVSPropertyOp6
 70
     1
102
RTVSPropertyOp7
 70
     1
102
RTVSPropertyOp8
 70
     1
102
RTVSPropertyOp9
 70
     1
102
RTVSPropertyOp10
 70
     1
102
RTVSPropertyOp11
 70
     1
102
RTVSPropertyOp12
 70
     1
102
RTVSPropertyOp13
 70
     1
102
RTVSPropertyOp14
 70
     1
102
RTVSPropertyOp15
 70
     1
102
RTVSPropertyOp16
 70
     1
102
RTVSPropertyOp17
 70
     1
102
RTVSPropertyOp18
 70
     1
102
RTVSPropertyOp19
 70
     1
102
RTVSPropertyOp20
 70
     1
102
RTVSPropertyOp21
 70
     1
102
RTVSPropertyOp22
 70
     1
102
RTVSPropertyOp23
 70
     1
102
RTVSPropertyOp24
 70
     1
102
RTVSPropertyOp25
 70
     1
102
RTVSPropertyOp26
 70
     1
102
RTVSPropertyOp27
 70
     1
102
RTVSPropertyOp28
 70
     1
102
RTVSPropertyOp29
 70
     1
102
RTVSPropertyOp30
 70
     1
102
RTVSPropertyOp31
 70
     1
102
RTVSPropertyOp32
 70
     1
  0
XRECORD
  5
212
102
{ACAD_REACTORS
330
211
102
}
330
211
100
AcDbXrecord
280
     1
102
RTVSPropertyOp0
 70
     1
102
RTVSPropertyOp1
 70
     1
102
RTVSPropertyOp2
 70
     1
102
RTVSPropertyOp3
 70
     1
102
RTVSPropertyOp4
 70
     1
102
RTVSPropertyOp5
 70
     1
102
RTVSPropertyOp6
 70
     1
102
RTVSPropertyOp7
 70
     1
102
RTVSPropertyOp8
 70
     1
102
RTVSPropertyOp9
 70
     1
102
RTVSPropertyOp10
 70
     1
102
RTVSPropertyOp11
 70
     1
102
RTVSPropertyOp12
 70
     1
102
RTVSPropertyOp13
 70
     1
102
RTVSPropertyOp14
 70
     1
102
RTVSPropertyOp15
 70
     1
102
RTVSPropertyOp16
 70
     1
102
RTVSPropertyOp17
 70
     1
102
RTVSPropertyOp18
 70
     1
102
RTVSPropertyOp19
 70
     1
102
RTVSPropertyOp20
 70
     1
102
RTVSPropertyOp21
 70
     1
102
RTVSPropertyOp22
 70
     1
102
RTVSPropertyOp23
 70
     1
102
RTVSPropertyOp24
 70
     1
102
RTVSPropertyOp25
 70
     1
102
RTVSPropertyOp26
 70
     1
102
RTVSPropertyOp27
 70
     1
102
RTVSPropertyOp28
 70
     1
102
RTVSPropertyOp29
 70
     1
102
RTVSPropertyOp30
 70
     1
102
RTVSPropertyOp31
 70
     1
102
RTVSPropertyOp32
 70
     1
  0
XRECORD
  5
206
102
{ACAD_REACTORS
330
205
102
}
330
205
100
AcDbXrecord
280
     1
102
RTVSPropertyOp0
 70
     1
102
RTVSPropertyOp1
 70
     1
102
RTVSPropertyOp2
 70
     1
102
RTVSPropertyOp3
 70
     1
102
RTVSPropertyOp4
 70
     1
102
RTVSPropertyOp5
 70
     1
102
RTVSPropertyOp6
 70
     1
102
RTVSPropertyOp7
 70
     1
102
RTVSPropertyOp8
 70
     1
102
RTVSPropertyOp9
 70
     1
102
RTVSPropertyOp10
 70
     1
102
RTVSPropertyOp11
 70
     1
102
RTVSPropertyOp12
 70
     1
102
RTVSPropertyOp13
 70
     1
102
RTVSPropertyOp14
 70
     1
102
RTVSPropertyOp15
 70
     1
102
RTVSPropertyOp16
 70
     1
102
RTVSPropertyOp17
 70
     1
102
RTVSPropertyOp18
 70
     1
102
RTVSPropertyOp19
 70
     1
102
RTVSPropertyOp20
 70
     1
102
RTVSPropertyOp21
 70
     1
102
RTVSPropertyOp22
 70
     1
102
RTVSPropertyOp23
 70
     1
102
RTVSPropertyOp24
 70
     1
102
RTVSPropertyOp25
 70
     1
102
RTVSPropertyOp26
 70
     1
102
RTVSPropertyOp27
 70
     1
102
RTVSPropertyOp28
 70
     1
102
RTVSPropertyOp29
 70
     1
102
RTVSPropertyOp30
 70
     1
102
RTVSPropertyOp31
 70
     1
102
RTVSPropertyOp32
 70
     1
  0
XRECORD
  5
208
102
{ACAD_REACTORS
330
207
102
}
330
207
100
AcDbXrecord
280
     1
102
RTVSPropertyOp0
 70
     1
102
RTVSPropertyOp1
 70
     1
102
RTVSPropertyOp2
 70
     1
102
RTVSPropertyOp3
 70
     1
102
RTVSPropertyOp4
 70
     1
102
RTVSPropertyOp5
 70
     1
102
RTVSPropertyOp6
 70
     1
102
RTVSPropertyOp7
 70
     1
102
RTVSPropertyOp8
 70
     1
102
RTVSPropertyOp9
 70
     1
102
RTVSPropertyOp10
 70
     1
102
RTVSPropertyOp11
 70
     1
102
RTVSPropertyOp12
 70
     1
102
RTVSPropertyOp13
 70
     1
102
RTVSPropertyOp14
 70
     1
102
RTVSPropertyOp15
 70
     1
102
RTVSPropertyOp16
 70
     1
102
RTVSPropertyOp17
 70
     1
102
RTVSPropertyOp18
 70
     1
102
RTVSPropertyOp19
 70
     1
102
RTVSPropertyOp20
 70
     1
102
RTVSPropertyOp21
 70
     1
102
RTVSPropertyOp22
 70
     1
102
RTVSPropertyOp23
 70
     1
102
RTVSPropertyOp24
 70
     1
102
RTVSPropertyOp25
 70
     1
102
RTVSPropertyOp26
 70
     1
102
RTVSPropertyOp27
 70
     1
102
RTVSPropertyOp28
 70
     1
102
RTVSPropertyOp29
 70
     1
102
RTVSPropertyOp30
 70
     1
102
RTVSPropertyOp31
 70
     1
102
RTVSPropertyOp32
 70
     1
  0
XRECORD
  5
210
102
{ACAD_REACTORS
330
20F
102
}
330
20F
100
AcDbXrecord
280
     1
102
RTVSPropertyOp0
 70
     1
102
RTVSPropertyOp1
 70
     1
102
RTVSPropertyOp2
 70
     1
102
RTVSPropertyOp3
 70
     1
102
RTVSPropertyOp4
 70
     1
102
RTVSPropertyOp5
 70
     1
102
RTVSPropertyOp6
 70
     1
102
RTVSPropertyOp7
 70
     1
102
RTVSPropertyOp8
 70
     1
102
RTVSPropertyOp9
 70
     1
102
RTVSPropertyOp10
 70
     1
102
RTVSPropertyOp11
 70
     1
102
RTVSPropertyOp12
 70
     1
102
RTVSPropertyOp13
 70
     1
102
RTVSPropertyOp14
 70
     1
102
RTVSPropertyOp15
 70
     1
102
RTVSPropertyOp16
 70
     1
102
RTVSPropertyOp17
 70
     1
102
RTVSPropertyOp18
 70
     1
102
RTVSPropertyOp19
 70
     1
102
RTVSPropertyOp20
 70
     1
102
RTVSPropertyOp21
 70
     1
102
RTVSPropertyOp22
 70
     1
102
RTVSPropertyOp23
 70
     1
102
RTVSPropertyOp24
 70
     1
102
RTVSPropertyOp25
 70
     1
102
RTVSPropertyOp26
 70
     1
102
RTVSPropertyOp27
 70
     1
102
RTVSPropertyOp28
 70
     1
102
RTVSPropertyOp29
 70
     1
102
RTVSPropertyOp30
 70
     1
102
RTVSPropertyOp31
 70
     1
102
RTVSPropertyOp32
 70
     1
  0
XRECORD
  5
1F4
102
{ACAD_REACTORS
330
1F3
102
}
330
1F3
100
AcDbXrecord
280
     1
102
RTVSPropertyOp0
 70
     1
102
RTVSPropertyOp1
 70
     1
102
RTVSPropertyOp2
 70
     1
102
RTVSPropertyOp3
 70
     1
102
RTVSPropertyOp4
 70
     1
102
RTVSPropertyOp5
 70
     1
102
RTVSPropertyOp6
 70
     1
102
RTVSPropertyOp7
 70
     1
102
RTVSPropertyOp8
 70
     1
102
RTVSPropertyOp9
 70
     1
102
RTVSPropertyOp10
 70
     1
102
RTVSPropertyOp11
 70
     1
102
RTVSPropertyOp12
 70
     1
102
RTVSPropertyOp13
 70
     1
102
RTVSPropertyOp14
 70
     1
102
RTVSPropertyOp15
 70
     1
102
RTVSPropertyOp16
 70
     1
102
RTVSPropertyOp17
 70
     1
102
RTVSPropertyOp18
 70
     1
102
RTVSPropertyOp19
 70
     1
102
RTVSPropertyOp20
 70
     1
102
RTVSPropertyOp21
 70
     1
102
RTVSPropertyOp22
 70
     1
102
RTVSPropertyOp23
 70
     1
102
RTVSPropertyOp24
 70
     1
102
RTVSPropertyOp25
 70
     1
102
RTVSPropertyOp26
 70
     1
102
RTVSPropertyOp27
 70
     1
102
RTVSPropertyOp28
 70
     1
102
RTVSPropertyOp29
 70
     1
102
RTVSPropertyOp30
 70
     1
102
RTVSPropertyOp31
 70
     1
102
RTVSPropertyOp32
 70
     1
  0
XRECORD
  5
1F6
102
{ACAD_REACTORS
330
1F5
102
}
330
1F5
100
AcDbXrecord
280
     1
102
RTVSPropertyOp0
 70
     1
102
RTVSPropertyOp1
 70
     1
102
RTVSPropertyOp2
 70
     1
102
RTVSPropertyOp3
 70
     1
102
RTVSPropertyOp4
 70
     1
102
RTVSPropertyOp5
 70
     1
102
RTVSPropertyOp6
 70
     1
102
RTVSPropertyOp7
 70
     1
102
RTVSPropertyOp8
 70
     1
102
RTVSPropertyOp9
 70
     1
102
RTVSPropertyOp10
 70
     1
102
RTVSPropertyOp11
 70
     1
102
RTVSPropertyOp12
 70
     1
102
RTVSPropertyOp13
 70
     1
102
RTVSPropertyOp14
 70
     1
102
RTVSPropertyOp15
 70
     1
102
RTVSPropertyOp16
 70
     1
102
RTVSPropertyOp17
 70
     1
102
RTVSPropertyOp18
 70
     1
102
RTVSPropertyOp19
 70
     1
102
RTVSPropertyOp20
 70
     1
102
RTVSPropertyOp21
 70
     1
102
RTVSPropertyOp22
 70
     1
102
RTVSPropertyOp23
 70
     1
102
RTVSPropertyOp24
 70
     1
102
RTVSPropertyOp25
 70
     1
102
RTVSPropertyOp26
 70
     1
102
RTVSPropertyOp27
 70
     1
102
RTVSPropertyOp28
 70
     1
102
RTVSPropertyOp29
 70
     1
102
RTVSPropertyOp30
 70
     1
102
RTVSPropertyOp31
 70
     1
102
RTVSPropertyOp32
 70
     1
  0
XRECORD
  5
1F8
102
{ACAD_REACTORS
330
1F7
102
}
330
1F7
100
AcDbXrecord
280
     1
102
RTVSPropertyOp0
 70
     1
102
RTVSPropertyOp1
 70
     1
102
RTVSPropertyOp2
 70
     1
102
RTVSPropertyOp3
 70
     1
102
RTVSPropertyOp4
 70
     1
102
RTVSPropertyOp5
 70
     1
102
RTVSPropertyOp6
 70
     1
102
RTVSPropertyOp7
 70
     1
102
RTVSPropertyOp8
 70
     1
102
RTVSPropertyOp9
 70
     1
102
RTVSPropertyOp10
 70
     1
102
RTVSPropertyOp11
 70
     1
102
RTVSPropertyOp12
 70
     1
102
RTVSPropertyOp13
 70
     1
102
RTVSPropertyOp14
 70
     1
102
RTVSPropertyOp15
 70
     1
102
RTVSPropertyOp16
 70
     1
102
RTVSPropertyOp17
 70
     1
102
RTVSPropertyOp18
 70
     1
102
RTVSPropertyOp19
 70
     1
102
RTVSPropertyOp20
 70
     1
102
RTVSPropertyOp21
 70
     1
102
RTVSPropertyOp22
 70
     1
102
RTVSPropertyOp23
 70
     1
102
RTVSPropertyOp24
 70
     1
102
RTVSPropertyOp25
 70
     1
102
RTVSPropertyOp26
 70
     1
102
RTVSPropertyOp27
 70
     1
102
RTVSPropertyOp28
 70
     1
102
RTVSPropertyOp29
 70
     1
102
RTVSPropertyOp30
 70
     1
102
RTVSPropertyOp31
 70
     1
102
RTVSPropertyOp32
 70
     1
  0
XRECORD
  5
1FA
102
{ACAD_REACTORS
330
1F9
102
}
330
1F9
100
AcDbXrecord
280
     1
102
RTVSPropertyOp0
 70
     1
102
RTVSPropertyOp1
 70
     1
102
RTVSPropertyOp2
 70
     1
102
RTVSPropertyOp3
 70
     1
102
RTVSPropertyOp4
 70
     1
102
RTVSPropertyOp5
 70
     1
102
RTVSPropertyOp6
 70
     1
102
RTVSPropertyOp7
 70
     1
102
RTVSPropertyOp8
 70
     1
102
RTVSPropertyOp9
 70
     1
102
RTVSPropertyOp10
 70
     1
102
RTVSPropertyOp11
 70
     1
102
RTVSPropertyOp12
 70
     1
102
RTVSPropertyOp13
 70
     1
102
RTVSPropertyOp14
 70
     1
102
RTVSPropertyOp15
 70
     1
102
RTVSPropertyOp16
 70
     1
102
RTVSPropertyOp17
 70
     1
102
RTVSPropertyOp18
 70
     1
102
RTVSPropertyOp19
 70
     1
102
RTVSPropertyOp20
 70
     1
102
RTVSPropertyOp21
 70
     1
102
RTVSPropertyOp22
 70
     1
102
RTVSPropertyOp23
 70
     1
102
RTVSPropertyOp24
 70
     1
102
RTVSPropertyOp25
 70
     1
102
RTVSPropertyOp26
 70
     1
102
RTVSPropertyOp27
 70
     1
102
RTVSPropertyOp28
 70
     1
102
RTVSPropertyOp29
 70
     1
102
RTVSPropertyOp30
 70
     1
102
RTVSPropertyOp31
 70
     1
102
RTVSPropertyOp32
 70
     1
  0
XRECORD
  5
20E
102
{ACAD_REACTORS
330
20D
102
}
330
20D
100
AcDbXrecord
280
     1
102
RTVSPropertyOp0
 70
     1
102
RTVSPropertyOp1
 70
     1
102
RTVSPropertyOp2
 70
     1
102
RTVSPropertyOp3
 70
     1
102
RTVSPropertyOp4
 70
     1
102
RTVSPropertyOp5
 70
     1
102
RTVSPropertyOp6
 70
     1
102
RTVSPropertyOp7
 70
     1
102
RTVSPropertyOp8
 70
     1
102
RTVSPropertyOp9
 70
     1
102
RTVSPropertyOp10
 70
     1
102
RTVSPropertyOp11
 70
     1
102
RTVSPropertyOp12
 70
     1
102
RTVSPropertyOp13
 70
     1
102
RTVSPropertyOp14
 70
     1
102
RTVSPropertyOp15
 70
     1
102
RTVSPropertyOp16
 70
     1
102
RTVSPropertyOp17
 70
     1
102
RTVSPropertyOp18
 70
     1
102
RTVSPropertyOp19
 70
     1
102
RTVSPropertyOp20
 70
     1
102
RTVSPropertyOp21
 70
     1
102
RTVSPropertyOp22
 70
     1
102
RTVSPropertyOp23
 70
     1
102
RTVSPropertyOp24
 70
     1
102
RTVSPropertyOp25
 70
     1
102
RTVSPropertyOp26
 70
     1
102
RTVSPropertyOp27
 70
     1
102
RTVSPropertyOp28
 70
     1
102
RTVSPropertyOp29
 70
     1
102
RTVSPropertyOp30
 70
     1
102
RTVSPropertyOp31
 70
     1
102
RTVSPropertyOp32
 70
     1
  0
XRECORD
  5
204
102
{ACAD_REACTORS
330
203
102
}
330
203
100
AcDbXrecord
280
     1
102
RTVSPropertyOp0
 70
     1
102
RTVSPropertyOp1
 70
     1
102
RTVSPropertyOp2
 70
     1
102
RTVSPropertyOp3
 70
     1
102
RTVSPropertyOp4
 70
     1
102
RTVSPropertyOp5
 70
     1
102
RTVSPropertyOp6
 70
     1
102
RTVSPropertyOp7
 70
     1
102
RTVSPropertyOp8
 70
     1
102
RTVSPropertyOp9
 70
     1
102
RTVSPropertyOp10
 70
     1
102
RTVSPropertyOp11
 70
     1
102
RTVSPropertyOp12
 70
     1
102
RTVSPropertyOp13
 70
     1
102
RTVSPropertyOp14
 70
     1
102
RTVSPropertyOp15
 70
     1
102
RTVSPropertyOp16
 70
     1
102
RTVSPropertyOp17
 70
     1
102
RTVSPropertyOp18
 70
     1
102
RTVSPropertyOp19
 70
     1
102
RTVSPropertyOp20
 70
     1
102
RTVSPropertyOp21
 70
     1
102
RTVSPropertyOp22
 70
     1
102
RTVSPropertyOp23
 70
     1
102
RTVSPropertyOp24
 70
     1
102
RTVSPropertyOp25
 70
     1
102
RTVSPropertyOp26
 70
     1
102
RTVSPropertyOp27
 70
     1
102
RTVSPropertyOp28
 70
     1
102
RTVSPropertyOp29
 70
     1
102
RTVSPropertyOp30
 70
     1
102
RTVSPropertyOp31
 70
     1
102
RTVSPropertyOp32
 70
     1
  0
XRECORD
  5
20C
102
{ACAD_REACTORS
330
20B
102
}
330
20B
100
AcDbXrecord
280
     1
102
RTVSPropertyOp0
 70
     1
102
RTVSPropertyOp1
 70
     1
102
RTVSPropertyOp2
 70
     1
102
RTVSPropertyOp3
 70
     1
102
RTVSPropertyOp4
 70
     1
102
RTVSPropertyOp5
 70
     1
102
RTVSPropertyOp6
 70
     1
102
RTVSPropertyOp7
 70
     1
102
RTVSPropertyOp8
 70
     1
102
RTVSPropertyOp9
 70
     1
102
RTVSPropertyOp10
 70
     1
102
RTVSPropertyOp11
 70
     1
102
RTVSPropertyOp12
 70
     1
102
RTVSPropertyOp13
 70
     1
102
RTVSPropertyOp14
 70
     1
102
RTVSPropertyOp15
 70
     1
102
RTVSPropertyOp16
 70
     1
102
RTVSPropertyOp17
 70
     1
102
RTVSPropertyOp18
 70
     1
102
RTVSPropertyOp19
 70
     1
102
RTVSPropertyOp20
 70
     1
102
RTVSPropertyOp21
 70
     1
102
RTVSPropertyOp22
 70
     1
102
RTVSPropertyOp23
 70
     1
102
RTVSPropertyOp24
 70
     1
102
RTVSPropertyOp25
 70
     1
102
RTVSPropertyOp26
 70
     1
102
RTVSPropertyOp27
 70
     1
102
RTVSPropertyOp28
 70
     1
102
RTVSPropertyOp29
 70
     1
102
RTVSPropertyOp30
 70
     1
102
RTVSPropertyOp31
 70
     1
102
RTVSPropertyOp32
 70
     1
  0
ENDSEC
  0
EOF
